solid OpenSCAD_Model
  facet normal -0.000000 0.000000 -1.000000
    outer loop
      vertex 2.000000 0.000000 -19.990000
      vertex 2.437048 4.158234 -19.990000
      vertex 2.437048 -4.158234 -19.990000
    endloop
  endfacet
  facet normal 0.000000 -0.000000 -1.000000
    outer loop
      vertex 2.437048 -4.158234 -19.990000
      vertex 2.437048 4.158234 -19.990000
      vertex 3.729091 8.134733 -19.990000
    endloop
  endfacet
  facet normal 0.000000 0.000000 -1.000000
    outer loop
      vertex 2.437048 -4.158234 -19.990000
      vertex 3.729091 8.134733 -19.990000
      vertex 5.819660 11.755705 -19.990000
    endloop
  endfacet
  facet normal 0.000000 0.000000 -1.000000
    outer loop
      vertex 2.437048 -4.158234 -19.990000
      vertex 5.819660 11.755705 -19.990000
      vertex 8.617388 14.862897 -19.990000
    endloop
  endfacet
  facet normal 0.000000 0.000000 -1.000000
    outer loop
      vertex 2.437048 -4.158234 -19.990000
      vertex 8.617388 14.862897 -19.990000
      vertex 12.000000 17.320508 -19.990000
    endloop
  endfacet
  facet normal 0.000000 0.000000 -1.000000
    outer loop
      vertex 2.437048 -4.158234 -19.990000
      vertex 12.000000 17.320508 -19.990000
      vertex 15.819660 19.021130 -19.990000
    endloop
  endfacet
  facet normal 0.000000 0.000000 -1.000000
    outer loop
      vertex 2.437048 -4.158234 -19.990000
      vertex 15.819660 19.021130 -19.990000
      vertex 19.909431 19.890438 -19.990000
    endloop
  endfacet
  facet normal 0.000000 0.000000 -1.000000
    outer loop
      vertex 2.437048 -4.158234 -19.990000
      vertex 19.909431 19.890438 -19.990000
      vertex 24.090569 19.890438 -19.990000
    endloop
  endfacet
  facet normal 0.000000 0.000000 -1.000000
    outer loop
      vertex 2.437048 -4.158234 -19.990000
      vertex 24.090569 19.890438 -19.990000
      vertex 28.180340 19.021130 -19.990000
    endloop
  endfacet
  facet normal 0.000000 0.000000 -1.000000
    outer loop
      vertex 2.437048 -4.158234 -19.990000
      vertex 28.180340 19.021130 -19.990000
      vertex 32.000000 17.320508 -19.990000
    endloop
  endfacet
  facet normal 0.000000 0.000000 -1.000000
    outer loop
      vertex 2.437048 -4.158234 -19.990000
      vertex 32.000000 17.320508 -19.990000
      vertex 35.382612 14.862897 -19.990000
    endloop
  endfacet
  facet normal 0.000000 0.000000 -1.000000
    outer loop
      vertex 2.437048 -4.158234 -19.990000
      vertex 35.382612 14.862897 -19.990000
      vertex 38.180340 11.755705 -19.990000
    endloop
  endfacet
  facet normal 0.000000 0.000000 -1.000000
    outer loop
      vertex 22.515735 2.924879 -19.990000
      vertex 38.180340 11.755705 -19.990000
      vertex 40.270909 8.134733 -19.990000
    endloop
  endfacet
  facet normal 0.000000 0.000000 -1.000000
    outer loop
      vertex 23.980000 2.079486 -19.990000
      vertex 40.270909 8.134733 -19.990000
      vertex 41.562952 4.158234 -19.990000
    endloop
  endfacet
  facet normal 0.000000 0.000000 -1.000000
    outer loop
      vertex 23.980000 2.079486 -19.990000
      vertex 42.000000 0.000000 -19.990000
      vertex 23.980000 -2.079486 -19.990000
    endloop
  endfacet
  facet normal 0.000000 0.000000 -1.000000
    outer loop
      vertex 2.437048 -4.158234 -19.990000
      vertex 41.562952 -4.158234 -19.990000
      vertex 40.270909 -8.134733 -19.990000
    endloop
  endfacet
  facet normal 0.000000 0.000000 -1.000000
    outer loop
      vertex 2.437048 -4.158234 -19.990000
      vertex 40.270909 -8.134733 -19.990000
      vertex 38.180340 -11.755705 -19.990000
    endloop
  endfacet
  facet normal 0.000000 0.000000 -1.000000
    outer loop
      vertex 2.437048 -4.158234 -19.990000
      vertex 38.180340 -11.755705 -19.990000
      vertex 35.382612 -14.862897 -19.990000
    endloop
  endfacet
  facet normal 0.000000 0.000000 -1.000000
    outer loop
      vertex 2.437048 -4.158234 -19.990000
      vertex 35.382612 -14.862897 -19.990000
      vertex 32.000000 -17.320508 -19.990000
    endloop
  endfacet
  facet normal 0.000000 0.000000 -1.000000
    outer loop
      vertex 2.437048 -4.158234 -19.990000
      vertex 32.000000 -17.320508 -19.990000
      vertex 28.180340 -19.021130 -19.990000
    endloop
  endfacet
  facet normal 0.000000 0.000000 -1.000000
    outer loop
      vertex 2.437048 -4.158234 -19.990000
      vertex 28.180340 -19.021130 -19.990000
      vertex 24.090569 -19.890438 -19.990000
    endloop
  endfacet
  facet normal 0.000000 0.000000 -1.000000
    outer loop
      vertex 2.437048 -4.158234 -19.990000
      vertex 24.090569 -19.890438 -19.990000
      vertex 19.909431 -19.890438 -19.990000
    endloop
  endfacet
  facet normal 0.000000 0.000000 -1.000000
    outer loop
      vertex 2.437048 -4.158234 -19.990000
      vertex 19.909431 -19.890438 -19.990000
      vertex 15.819660 -19.021130 -19.990000
    endloop
  endfacet
  facet normal 0.000000 0.000000 -1.000000
    outer loop
      vertex 2.437048 -4.158234 -19.990000
      vertex 15.819660 -19.021130 -19.990000
      vertex 12.000000 -17.320508 -19.990000
    endloop
  endfacet
  facet normal 0.000000 0.000000 -1.000000
    outer loop
      vertex 2.437048 -4.158234 -19.990000
      vertex 12.000000 -17.320508 -19.990000
      vertex 8.617388 -14.862897 -19.990000
    endloop
  endfacet
  facet normal 0.000000 0.000000 -1.000000
    outer loop
      vertex 2.437048 -4.158234 -19.990000
      vertex 8.617388 -14.862897 -19.990000
      vertex 5.819660 -11.755705 -19.990000
    endloop
  endfacet
  facet normal 0.000000 0.000000 -1.000000
    outer loop
      vertex 2.437048 -4.158234 -19.990000
      vertex 5.819660 -11.755705 -19.990000
      vertex 3.729091 -8.134733 -19.990000
    endloop
  endfacet
  facet normal 0.000000 0.000000 -1.000000
    outer loop
      vertex 20.515000 -2.572096 -19.990000
      vertex 2.437048 -4.158234 -19.990000
      vertex 20.020000 -1.982178 -19.990000
    endloop
  endfacet
  facet normal -0.000000 0.000000 -1.000000
    outer loop
      vertex 23.980000 2.079486 -19.990000
      vertex 41.562952 4.158234 -19.990000
      vertex 42.000000 0.000000 -19.990000
    endloop
  endfacet
  facet normal 0.000000 0.000000 -1.000000
    outer loop
      vertex 2.437048 -4.158234 -19.990000
      vertex 20.515000 -2.572096 -19.990000
      vertex 22.515735 -2.924879 -19.990000
    endloop
  endfacet
  facet normal -0.000000 0.000000 -1.000000
    outer loop
      vertex 2.437048 -4.158234 -19.990000
      vertex 22.515735 -2.924879 -19.990000
      vertex 41.562952 -4.158234 -19.990000
    endloop
  endfacet
  facet normal 0.000000 0.000000 -1.000000
    outer loop
      vertex 23.980000 -2.079486 -19.990000
      vertex 41.562952 -4.158234 -19.990000
      vertex 22.515735 -2.924879 -19.990000
    endloop
  endfacet
  facet normal -0.000000 0.000000 -1.000000
    outer loop
      vertex 23.980000 -2.079486 -19.990000
      vertex 42.000000 0.000000 -19.990000
      vertex 41.562952 -4.158234 -19.990000
    endloop
  endfacet
  facet normal 0.000000 0.000000 -1.000000
    outer loop
      vertex 20.515000 2.572096 -19.990000
      vertex 38.180340 11.755705 -19.990000
      vertex 22.515735 2.924879 -19.990000
    endloop
  endfacet
  facet normal 0.000000 0.000000 -1.000000
    outer loop
      vertex 2.437048 -4.158234 -19.990000
      vertex 38.180340 11.755705 -19.990000
      vertex 20.515000 2.572096 -19.990000
    endloop
  endfacet
  facet normal 0.000000 0.000000 -1.000000
    outer loop
      vertex 2.437048 -4.158234 -19.990000
      vertex 20.515000 2.572096 -19.990000
      vertex 20.020000 1.982178 -19.990000
    endloop
  endfacet
  facet normal 0.000000 0.000000 -1.000000
    outer loop
      vertex 20.020000 -1.982178 -19.990000
      vertex 2.437048 -4.158234 -19.990000
      vertex 20.020000 1.982178 -19.990000
    endloop
  endfacet
  facet normal -0.000000 0.000000 -1.000000
    outer loop
      vertex 22.515735 2.924879 -19.990000
      vertex 40.270909 8.134733 -19.990000
      vertex 23.980000 2.079486 -19.990000
    endloop
  endfacet
  facet normal -0.705162 0.074116 0.705162
    outer loop
      vertex 2.000000 0.000000 -19.990000
      vertex 12.000000 0.000000 -9.990000
      vertex 2.437048 4.158234 -19.990000
    endloop
  endfacet
  facet normal -0.705162 0.074116 0.705162
    outer loop
      vertex 2.437048 4.158234 -19.990000
      vertex 12.000000 0.000000 -9.990000
      vertex 12.218524 2.079117 -9.990000
    endloop
  endfacet
  facet normal -0.705162 -0.074116 0.705162
    outer loop
      vertex 2.000000 0.000000 -19.990000
      vertex 2.437048 -4.158234 -19.990000
      vertex 12.000000 0.000000 -9.990000
    endloop
  endfacet
  facet normal -0.705162 -0.074116 0.705162
    outer loop
      vertex 12.000000 0.000000 -9.990000
      vertex 2.437048 -4.158234 -19.990000
      vertex 12.218524 -2.079117 -9.990000
    endloop
  endfacet
  facet normal -0.674343 -0.219107 0.705162
    outer loop
      vertex 12.218524 -2.079117 -9.990000
      vertex 2.437048 -4.158234 -19.990000
      vertex 3.729091 -8.134733 -19.990000
    endloop
  endfacet
  facet normal -0.674343 -0.219107 0.705162
    outer loop
      vertex 12.218524 -2.079117 -9.990000
      vertex 3.729091 -8.134733 -19.990000
      vertex 12.864545 -4.067366 -9.990000
    endloop
  endfacet
  facet normal -0.614052 -0.354523 0.705162
    outer loop
      vertex 12.864545 -4.067366 -9.990000
      vertex 3.729091 -8.134733 -19.990000
      vertex 5.819660 -11.755705 -19.990000
    endloop
  endfacet
  facet normal -0.614052 -0.354523 0.705162
    outer loop
      vertex 12.864545 -4.067366 -9.990000
      vertex 5.819660 -11.755705 -19.990000
      vertex 13.909830 -5.877853 -9.990000
    endloop
  endfacet
  facet normal -0.526924 -0.474445 0.705162
    outer loop
      vertex 13.909830 -5.877853 -9.990000
      vertex 5.819660 -11.755705 -19.990000
      vertex 8.617388 -14.862897 -19.990000
    endloop
  endfacet
  facet normal -0.526924 -0.474445 0.705162
    outer loop
      vertex 13.909830 -5.877853 -9.990000
      vertex 8.617388 -14.862897 -19.990000
      vertex 15.308694 -7.431448 -9.990000
    endloop
  endfacet
  facet normal -0.416767 -0.573630 0.705162
    outer loop
      vertex 15.308694 -7.431448 -9.990000
      vertex 8.617388 -14.862897 -19.990000
      vertex 12.000000 -17.320508 -19.990000
    endloop
  endfacet
  facet normal -0.416767 -0.573630 0.705162
    outer loop
      vertex 15.308694 -7.431448 -9.990000
      vertex 12.000000 -17.320508 -19.990000
      vertex 17.000000 -8.660254 -9.990000
    endloop
  endfacet
  facet normal -0.288395 -0.647746 0.705162
    outer loop
      vertex 17.000000 -8.660254 -9.990000
      vertex 12.000000 -17.320508 -19.990000
      vertex 15.819660 -19.021130 -19.990000
    endloop
  endfacet
  facet normal -0.288395 -0.647746 0.705162
    outer loop
      vertex 18.909830 -9.510565 -9.990000
      vertex 17.000000 -8.660254 -9.990000
      vertex 15.819660 -19.021130 -19.990000
    endloop
  endfacet
  facet normal -0.147419 -0.693552 0.705162
    outer loop
      vertex 18.909830 -9.510565 -9.990000
      vertex 15.819660 -19.021130 -19.990000
      vertex 19.909431 -19.890438 -19.990000
    endloop
  endfacet
  facet normal -0.147419 -0.693552 0.705162
    outer loop
      vertex 20.954715 -9.945219 -9.990000
      vertex 18.909830 -9.510565 -9.990000
      vertex 19.909431 -19.890438 -19.990000
    endloop
  endfacet
  facet normal 0.000000 -0.709046 0.705162
    outer loop
      vertex 20.954715 -9.945219 -9.990000
      vertex 19.909431 -19.890438 -19.990000
      vertex 24.090569 -19.890438 -19.990000
    endloop
  endfacet
  facet normal 0.000000 -0.709046 0.705162
    outer loop
      vertex 23.045285 -9.945219 -9.990000
      vertex 20.954715 -9.945219 -9.990000
      vertex 24.090569 -19.890438 -19.990000
    endloop
  endfacet
  facet normal 0.147419 -0.693552 0.705162
    outer loop
      vertex 28.180340 -19.021130 -19.990000
      vertex 23.045285 -9.945219 -9.990000
      vertex 24.090569 -19.890438 -19.990000
    endloop
  endfacet
  facet normal 0.147419 -0.693552 0.705162
    outer loop
      vertex 25.090170 -9.510565 -9.990000
      vertex 23.045285 -9.945219 -9.990000
      vertex 28.180340 -19.021130 -19.990000
    endloop
  endfacet
  facet normal 0.288395 -0.647746 0.705162
    outer loop
      vertex 27.000000 -8.660254 -9.990000
      vertex 25.090170 -9.510565 -9.990000
      vertex 28.180340 -19.021130 -19.990000
    endloop
  endfacet
  facet normal 0.288395 -0.647746 0.705162
    outer loop
      vertex 32.000000 -17.320508 -19.990000
      vertex 27.000000 -8.660254 -9.990000
      vertex 28.180340 -19.021130 -19.990000
    endloop
  endfacet
  facet normal 0.416767 -0.573630 0.705162
    outer loop
      vertex 35.382612 -14.862897 -19.990000
      vertex 27.000000 -8.660254 -9.990000
      vertex 32.000000 -17.320508 -19.990000
    endloop
  endfacet
  facet normal 0.416767 -0.573630 0.705162
    outer loop
      vertex 28.691306 -7.431448 -9.990000
      vertex 27.000000 -8.660254 -9.990000
      vertex 35.382612 -14.862897 -19.990000
    endloop
  endfacet
  facet normal 0.526924 -0.474445 0.705162
    outer loop
      vertex 38.180340 -11.755705 -19.990000
      vertex 28.691306 -7.431448 -9.990000
      vertex 35.382612 -14.862897 -19.990000
    endloop
  endfacet
  facet normal 0.526924 -0.474445 0.705162
    outer loop
      vertex 30.090170 -5.877853 -9.990000
      vertex 28.691306 -7.431448 -9.990000
      vertex 38.180340 -11.755705 -19.990000
    endloop
  endfacet
  facet normal 0.614052 -0.354523 0.705162
    outer loop
      vertex 40.270909 -8.134733 -19.990000
      vertex 30.090170 -5.877853 -9.990000
      vertex 38.180340 -11.755705 -19.990000
    endloop
  endfacet
  facet normal 0.614052 -0.354523 0.705162
    outer loop
      vertex 31.135455 -4.067366 -9.990000
      vertex 30.090170 -5.877853 -9.990000
      vertex 40.270909 -8.134733 -19.990000
    endloop
  endfacet
  facet normal 0.674343 -0.219107 0.705162
    outer loop
      vertex 41.562952 -4.158234 -19.990000
      vertex 31.135455 -4.067366 -9.990000
      vertex 40.270909 -8.134733 -19.990000
    endloop
  endfacet
  facet normal 0.674343 -0.219107 0.705162
    outer loop
      vertex 31.781476 -2.079117 -9.990000
      vertex 31.135455 -4.067366 -9.990000
      vertex 41.562952 -4.158234 -19.990000
    endloop
  endfacet
  facet normal 0.705162 -0.074116 0.705162
    outer loop
      vertex 32.000000 0.000000 -9.990000
      vertex 31.781476 -2.079117 -9.990000
      vertex 41.562952 -4.158234 -19.990000
    endloop
  endfacet
  facet normal 0.705162 -0.074116 0.705162
    outer loop
      vertex 42.000000 0.000000 -19.990000
      vertex 32.000000 0.000000 -9.990000
      vertex 41.562952 -4.158234 -19.990000
    endloop
  endfacet
  facet normal 0.705162 0.074116 0.705162
    outer loop
      vertex 41.562952 4.158234 -19.990000
      vertex 31.781476 2.079117 -9.990000
      vertex 32.000000 0.000000 -9.990000
    endloop
  endfacet
  facet normal 0.705162 0.074116 0.705162
    outer loop
      vertex 42.000000 0.000000 -19.990000
      vertex 41.562952 4.158234 -19.990000
      vertex 32.000000 0.000000 -9.990000
    endloop
  endfacet
  facet normal 0.674343 0.219107 0.705162
    outer loop
      vertex 40.270909 8.134733 -19.990000
      vertex 31.781476 2.079117 -9.990000
      vertex 41.562952 4.158234 -19.990000
    endloop
  endfacet
  facet normal 0.674343 0.219107 0.705162
    outer loop
      vertex 40.270909 8.134733 -19.990000
      vertex 31.135455 4.067366 -9.990000
      vertex 31.781476 2.079117 -9.990000
    endloop
  endfacet
  facet normal 0.614052 0.354523 0.705162
    outer loop
      vertex 38.180340 11.755705 -19.990000
      vertex 31.135455 4.067366 -9.990000
      vertex 40.270909 8.134733 -19.990000
    endloop
  endfacet
  facet normal 0.614052 0.354523 0.705162
    outer loop
      vertex 38.180340 11.755705 -19.990000
      vertex 30.090170 5.877853 -9.990000
      vertex 31.135455 4.067366 -9.990000
    endloop
  endfacet
  facet normal 0.526924 0.474445 0.705162
    outer loop
      vertex 35.382612 14.862897 -19.990000
      vertex 30.090170 5.877853 -9.990000
      vertex 38.180340 11.755705 -19.990000
    endloop
  endfacet
  facet normal 0.526924 0.474445 0.705162
    outer loop
      vertex 35.382612 14.862897 -19.990000
      vertex 28.691306 7.431448 -9.990000
      vertex 30.090170 5.877853 -9.990000
    endloop
  endfacet
  facet normal 0.416767 0.573630 0.705162
    outer loop
      vertex 32.000000 17.320508 -19.990000
      vertex 28.691306 7.431448 -9.990000
      vertex 35.382612 14.862897 -19.990000
    endloop
  endfacet
  facet normal 0.416767 0.573630 0.705162
    outer loop
      vertex 32.000000 17.320508 -19.990000
      vertex 27.000000 8.660254 -9.990000
      vertex 28.691306 7.431448 -9.990000
    endloop
  endfacet
  facet normal 0.288395 0.647746 0.705162
    outer loop
      vertex 28.180340 19.021130 -19.990000
      vertex 25.090170 9.510565 -9.990000
      vertex 27.000000 8.660254 -9.990000
    endloop
  endfacet
  facet normal 0.288395 0.647746 0.705162
    outer loop
      vertex 32.000000 17.320508 -19.990000
      vertex 28.180340 19.021130 -19.990000
      vertex 27.000000 8.660254 -9.990000
    endloop
  endfacet
  facet normal 0.147419 0.693552 0.705162
    outer loop
      vertex 28.180340 19.021130 -19.990000
      vertex 24.090569 19.890438 -19.990000
      vertex 25.090170 9.510565 -9.990000
    endloop
  endfacet
  facet normal 0.147419 0.693552 0.705162
    outer loop
      vertex 24.090569 19.890438 -19.990000
      vertex 23.045285 9.945219 -9.990000
      vertex 25.090170 9.510565 -9.990000
    endloop
  endfacet
  facet normal 0.000000 0.709046 0.705162
    outer loop
      vertex 19.909431 19.890438 -19.990000
      vertex 20.954715 9.945219 -9.990000
      vertex 24.090569 19.890438 -19.990000
    endloop
  endfacet
  facet normal 0.000000 0.709046 0.705162
    outer loop
      vertex 24.090569 19.890438 -19.990000
      vertex 20.954715 9.945219 -9.990000
      vertex 23.045285 9.945219 -9.990000
    endloop
  endfacet
  facet normal -0.147419 0.693552 0.705162
    outer loop
      vertex 19.909431 19.890438 -19.990000
      vertex 15.819660 19.021130 -19.990000
      vertex 20.954715 9.945219 -9.990000
    endloop
  endfacet
  facet normal -0.147419 0.693552 0.705162
    outer loop
      vertex 20.954715 9.945219 -9.990000
      vertex 15.819660 19.021130 -19.990000
      vertex 18.909830 9.510565 -9.990000
    endloop
  endfacet
  facet normal -0.288395 0.647746 0.705162
    outer loop
      vertex 15.819660 19.021130 -19.990000
      vertex 12.000000 17.320508 -19.990000
      vertex 17.000000 8.660254 -9.990000
    endloop
  endfacet
  facet normal -0.288395 0.647746 0.705162
    outer loop
      vertex 18.909830 9.510565 -9.990000
      vertex 15.819660 19.021130 -19.990000
      vertex 17.000000 8.660254 -9.990000
    endloop
  endfacet
  facet normal -0.416767 0.573630 0.705162
    outer loop
      vertex 12.000000 17.320508 -19.990000
      vertex 8.617388 14.862897 -19.990000
      vertex 17.000000 8.660254 -9.990000
    endloop
  endfacet
  facet normal -0.416767 0.573630 0.705162
    outer loop
      vertex 17.000000 8.660254 -9.990000
      vertex 8.617388 14.862897 -19.990000
      vertex 15.308694 7.431448 -9.990000
    endloop
  endfacet
  facet normal -0.526924 0.474445 0.705162
    outer loop
      vertex 8.617388 14.862897 -19.990000
      vertex 5.819660 11.755705 -19.990000
      vertex 15.308694 7.431448 -9.990000
    endloop
  endfacet
  facet normal -0.526924 0.474445 0.705162
    outer loop
      vertex 15.308694 7.431448 -9.990000
      vertex 5.819660 11.755705 -19.990000
      vertex 13.909830 5.877853 -9.990000
    endloop
  endfacet
  facet normal -0.614052 0.354523 0.705162
    outer loop
      vertex 5.819660 11.755705 -19.990000
      vertex 3.729091 8.134733 -19.990000
      vertex 13.909830 5.877853 -9.990000
    endloop
  endfacet
  facet normal -0.614052 0.354523 0.705162
    outer loop
      vertex 13.909830 5.877853 -9.990000
      vertex 3.729091 8.134733 -19.990000
      vertex 12.864545 4.067366 -9.990000
    endloop
  endfacet
  facet normal -0.674343 0.219107 0.705162
    outer loop
      vertex 3.729091 8.134733 -19.990000
      vertex 2.437048 4.158234 -19.990000
      vertex 12.864545 4.067366 -9.990000
    endloop
  endfacet
  facet normal -0.674343 0.219107 0.705162
    outer loop
      vertex 12.864545 4.067366 -9.990000
      vertex 2.437048 4.158234 -19.990000
      vertex 12.218524 2.079117 -9.990000
    endloop
  endfacet
  facet normal 1.000000 0.000000 -0.000000
    outer loop
      vertex 20.020000 -1.982178 -12.620000
      vertex 20.020000 -1.982178 -19.990000
      vertex 20.020000 1.982178 -19.990000
    endloop
  endfacet
  facet normal 1.000000 0.000000 0.000000
    outer loop
      vertex 20.020000 1.982178 -12.620000
      vertex 20.020000 -1.982178 -12.620000
      vertex 20.020000 1.982178 -19.990000
    endloop
  endfacet
  facet normal 0.766045 -0.642787 0.000000
    outer loop
      vertex 20.515000 2.572096 -19.990000
      vertex 20.515000 2.572096 -12.620000
      vertex 20.020000 1.982178 -12.620000
    endloop
  endfacet
  facet normal 0.766045 -0.642787 0.000000
    outer loop
      vertex 20.020000 1.982178 -19.990000
      vertex 20.515000 2.572096 -19.990000
      vertex 20.020000 1.982178 -12.620000
    endloop
  endfacet
  facet normal 0.173648 -0.984808 0.000000
    outer loop
      vertex 22.515735 2.924879 -19.990000
      vertex 22.515735 2.924879 -12.620000
      vertex 20.515000 2.572096 -12.620000
    endloop
  endfacet
  facet normal 0.173648 -0.984808 0.000000
    outer loop
      vertex 20.515000 2.572096 -19.990000
      vertex 22.515735 2.924879 -19.990000
      vertex 20.515000 2.572096 -12.620000
    endloop
  endfacet
  facet normal -0.500000 -0.866026 -0.000000
    outer loop
      vertex 23.980000 2.079486 -19.990000
      vertex 23.980000 2.079486 -12.620000
      vertex 22.515735 2.924879 -12.620000
    endloop
  endfacet
  facet normal -0.500000 -0.866026 -0.000000
    outer loop
      vertex 22.515735 2.924879 -19.990000
      vertex 23.980000 2.079486 -19.990000
      vertex 22.515735 2.924879 -12.620000
    endloop
  endfacet
  facet normal -1.000000 -0.000000 -0.000000
    outer loop
      vertex 23.980000 -2.079486 -19.990000
      vertex 23.980000 -2.079486 -12.620000
      vertex 23.980000 2.079486 -19.990000
    endloop
  endfacet
  facet normal -1.000000 0.000000 0.000000
    outer loop
      vertex 23.980000 2.079486 -19.990000
      vertex 23.980000 -2.079486 -12.620000
      vertex 23.980000 2.079486 -12.620000
    endloop
  endfacet
  facet normal -0.500000 0.866026 0.000000
    outer loop
      vertex 23.980000 -2.079486 -12.620000
      vertex 23.980000 -2.079486 -19.990000
      vertex 22.515735 -2.924879 -12.620000
    endloop
  endfacet
  facet normal -0.500000 0.866026 0.000000
    outer loop
      vertex 22.515735 -2.924879 -12.620000
      vertex 23.980000 -2.079486 -19.990000
      vertex 22.515735 -2.924879 -19.990000
    endloop
  endfacet
  facet normal 0.173648 0.984808 -0.000000
    outer loop
      vertex 22.515735 -2.924879 -12.620000
      vertex 22.515735 -2.924879 -19.990000
      vertex 20.515000 -2.572096 -12.620000
    endloop
  endfacet
  facet normal 0.173648 0.984808 -0.000000
    outer loop
      vertex 20.515000 -2.572096 -12.620000
      vertex 22.515735 -2.924879 -19.990000
      vertex 20.515000 -2.572096 -19.990000
    endloop
  endfacet
  facet normal 0.766045 0.642787 0.000000
    outer loop
      vertex 20.020000 -1.982178 -12.620000
      vertex 20.515000 -2.572096 -12.620000
      vertex 20.515000 -2.572096 -19.990000
    endloop
  endfacet
  facet normal 0.766045 0.642787 0.000000
    outer loop
      vertex 20.020000 -1.982178 -19.990000
      vertex 20.020000 -1.982178 -12.620000
      vertex 20.515000 -2.572096 -19.990000
    endloop
  endfacet
  facet normal -0.994522 0.104528 0.000000
    outer loop
      vertex 12.000000 0.000000 -9.990000
      vertex 12.000000 0.000000 0.000000
      vertex 12.218524 2.079117 -9.990000
    endloop
  endfacet
  facet normal -0.994522 0.104528 0.000000
    outer loop
      vertex 12.218524 2.079117 -9.990000
      vertex 12.000000 0.000000 0.000000
      vertex 12.218524 2.079117 0.000000
    endloop
  endfacet
  facet normal -0.951057 0.309017 0.000000
    outer loop
      vertex 12.218524 2.079117 -9.990000
      vertex 12.218524 2.079117 0.000000
      vertex 12.864545 4.067366 -9.990000
    endloop
  endfacet
  facet normal -0.951057 0.309017 0.000000
    outer loop
      vertex 12.864545 4.067366 -9.990000
      vertex 12.218524 2.079117 0.000000
      vertex 12.864545 4.067366 0.000000
    endloop
  endfacet
  facet normal -0.994522 -0.104528 -0.000000
    outer loop
      vertex 12.000000 0.000000 -9.990000
      vertex 12.218524 -2.079117 -9.990000
      vertex 12.000000 0.000000 0.000000
    endloop
  endfacet
  facet normal -0.994522 -0.104528 0.000000
    outer loop
      vertex 12.000000 0.000000 0.000000
      vertex 12.218524 -2.079117 -9.990000
      vertex 12.218524 -2.079117 0.000000
    endloop
  endfacet
  facet normal -0.951057 -0.309017 -0.000000
    outer loop
      vertex 12.218524 -2.079117 -9.990000
      vertex 12.864545 -4.067366 -9.990000
      vertex 12.218524 -2.079117 0.000000
    endloop
  endfacet
  facet normal -0.951057 -0.309017 0.000000
    outer loop
      vertex 12.218524 -2.079117 0.000000
      vertex 12.864545 -4.067366 -9.990000
      vertex 12.864545 -4.067366 0.000000
    endloop
  endfacet
  facet normal -0.866025 -0.500000 -0.000000
    outer loop
      vertex 12.864545 -4.067366 -9.990000
      vertex 13.909830 -5.877853 -9.990000
      vertex 12.864545 -4.067366 0.000000
    endloop
  endfacet
  facet normal -0.866025 -0.500000 0.000000
    outer loop
      vertex 12.864545 -4.067366 0.000000
      vertex 13.909830 -5.877853 -9.990000
      vertex 13.909830 -5.877853 0.000000
    endloop
  endfacet
  facet normal -0.743145 -0.669131 -0.000000
    outer loop
      vertex 13.909830 -5.877853 -9.990000
      vertex 15.308694 -7.431448 -9.990000
      vertex 13.909830 -5.877853 0.000000
    endloop
  endfacet
  facet normal -0.743145 -0.669131 0.000000
    outer loop
      vertex 13.909830 -5.877853 0.000000
      vertex 15.308694 -7.431448 -9.990000
      vertex 15.308694 -7.431448 0.000000
    endloop
  endfacet
  facet normal -0.587785 -0.809017 0.000000
    outer loop
      vertex 15.308694 -7.431448 0.000000
      vertex 15.308694 -7.431448 -9.990000
      vertex 17.000000 -8.660254 -9.990000
    endloop
  endfacet
  facet normal -0.587785 -0.809017 0.000000
    outer loop
      vertex 17.000000 -8.660254 0.000000
      vertex 15.308694 -7.431448 0.000000
      vertex 17.000000 -8.660254 -9.990000
    endloop
  endfacet
  facet normal -0.406737 -0.913545 0.000000
    outer loop
      vertex 17.000000 -8.660254 0.000000
      vertex 17.000000 -8.660254 -9.990000
      vertex 18.909830 -9.510565 -9.990000
    endloop
  endfacet
  facet normal -0.406737 -0.913545 0.000000
    outer loop
      vertex 18.909830 -9.510565 0.000000
      vertex 17.000000 -8.660254 0.000000
      vertex 18.909830 -9.510565 -9.990000
    endloop
  endfacet
  facet normal -0.207912 -0.978148 0.000000
    outer loop
      vertex 18.909830 -9.510565 0.000000
      vertex 18.909830 -9.510565 -9.990000
      vertex 20.954715 -9.945219 -9.990000
    endloop
  endfacet
  facet normal -0.207912 -0.978148 0.000000
    outer loop
      vertex 20.954715 -9.945219 0.000000
      vertex 18.909830 -9.510565 0.000000
      vertex 20.954715 -9.945219 -9.990000
    endloop
  endfacet
  facet normal 0.000000 -1.000000 0.000000
    outer loop
      vertex 20.954715 -9.945219 0.000000
      vertex 20.954715 -9.945219 -9.990000
      vertex 23.045285 -9.945219 -9.990000
    endloop
  endfacet
  facet normal 0.000000 -1.000000 0.000000
    outer loop
      vertex 23.045285 -9.945219 0.000000
      vertex 20.954715 -9.945219 0.000000
      vertex 23.045285 -9.945219 -9.990000
    endloop
  endfacet
  facet normal 0.207912 -0.978148 0.000000
    outer loop
      vertex 23.045285 -9.945219 0.000000
      vertex 23.045285 -9.945219 -9.990000
      vertex 25.090170 -9.510565 -9.990000
    endloop
  endfacet
  facet normal 0.207912 -0.978148 0.000000
    outer loop
      vertex 25.090170 -9.510565 0.000000
      vertex 23.045285 -9.945219 0.000000
      vertex 25.090170 -9.510565 -9.990000
    endloop
  endfacet
  facet normal 0.406737 -0.913545 0.000000
    outer loop
      vertex 25.090170 -9.510565 0.000000
      vertex 25.090170 -9.510565 -9.990000
      vertex 27.000000 -8.660254 -9.990000
    endloop
  endfacet
  facet normal 0.406737 -0.913545 0.000000
    outer loop
      vertex 27.000000 -8.660254 0.000000
      vertex 25.090170 -9.510565 0.000000
      vertex 27.000000 -8.660254 -9.990000
    endloop
  endfacet
  facet normal 0.587785 -0.809017 0.000000
    outer loop
      vertex 27.000000 -8.660254 0.000000
      vertex 27.000000 -8.660254 -9.990000
      vertex 28.691306 -7.431448 -9.990000
    endloop
  endfacet
  facet normal 0.587785 -0.809017 0.000000
    outer loop
      vertex 28.691306 -7.431448 0.000000
      vertex 27.000000 -8.660254 0.000000
      vertex 28.691306 -7.431448 -9.990000
    endloop
  endfacet
  facet normal 0.743145 -0.669131 0.000000
    outer loop
      vertex 28.691306 -7.431448 0.000000
      vertex 28.691306 -7.431448 -9.990000
      vertex 30.090170 -5.877853 -9.990000
    endloop
  endfacet
  facet normal 0.743145 -0.669131 0.000000
    outer loop
      vertex 30.090170 -5.877853 0.000000
      vertex 28.691306 -7.431448 0.000000
      vertex 30.090170 -5.877853 -9.990000
    endloop
  endfacet
  facet normal 0.866025 -0.500000 0.000000
    outer loop
      vertex 30.090170 -5.877853 0.000000
      vertex 30.090170 -5.877853 -9.990000
      vertex 31.135455 -4.067366 -9.990000
    endloop
  endfacet
  facet normal 0.866025 -0.500000 0.000000
    outer loop
      vertex 31.135455 -4.067366 0.000000
      vertex 30.090170 -5.877853 0.000000
      vertex 31.135455 -4.067366 -9.990000
    endloop
  endfacet
  facet normal 0.951057 -0.309017 0.000000
    outer loop
      vertex 31.135455 -4.067366 0.000000
      vertex 31.135455 -4.067366 -9.990000
      vertex 31.781476 -2.079117 -9.990000
    endloop
  endfacet
  facet normal 0.951057 -0.309017 0.000000
    outer loop
      vertex 31.781476 -2.079117 0.000000
      vertex 31.135455 -4.067366 0.000000
      vertex 31.781476 -2.079117 -9.990000
    endloop
  endfacet
  facet normal 0.994522 -0.104528 0.000000
    outer loop
      vertex 31.781476 -2.079117 0.000000
      vertex 31.781476 -2.079117 -9.990000
      vertex 32.000000 0.000000 -9.990000
    endloop
  endfacet
  facet normal 0.994522 -0.104528 0.000000
    outer loop
      vertex 32.000000 0.000000 0.000000
      vertex 31.781476 -2.079117 0.000000
      vertex 32.000000 0.000000 -9.990000
    endloop
  endfacet
  facet normal 0.994522 0.104528 0.000000
    outer loop
      vertex 32.000000 0.000000 -9.990000
      vertex 31.781476 2.079117 -9.990000
      vertex 31.781476 2.079117 0.000000
    endloop
  endfacet
  facet normal 0.994522 0.104528 -0.000000
    outer loop
      vertex 32.000000 0.000000 0.000000
      vertex 32.000000 0.000000 -9.990000
      vertex 31.781476 2.079117 0.000000
    endloop
  endfacet
  facet normal 0.951057 0.309017 0.000000
    outer loop
      vertex 31.781476 2.079117 -9.990000
      vertex 31.135455 4.067366 -9.990000
      vertex 31.135455 4.067366 0.000000
    endloop
  endfacet
  facet normal 0.951057 0.309017 -0.000000
    outer loop
      vertex 31.781476 2.079117 0.000000
      vertex 31.781476 2.079117 -9.990000
      vertex 31.135455 4.067366 0.000000
    endloop
  endfacet
  facet normal 0.866025 0.500000 0.000000
    outer loop
      vertex 31.135455 4.067366 -9.990000
      vertex 30.090170 5.877853 -9.990000
      vertex 30.090170 5.877853 0.000000
    endloop
  endfacet
  facet normal 0.866025 0.500000 -0.000000
    outer loop
      vertex 31.135455 4.067366 0.000000
      vertex 31.135455 4.067366 -9.990000
      vertex 30.090170 5.877853 0.000000
    endloop
  endfacet
  facet normal 0.743145 0.669131 0.000000
    outer loop
      vertex 30.090170 5.877853 -9.990000
      vertex 28.691306 7.431448 -9.990000
      vertex 28.691306 7.431448 0.000000
    endloop
  endfacet
  facet normal 0.743145 0.669131 -0.000000
    outer loop
      vertex 30.090170 5.877853 0.000000
      vertex 30.090170 5.877853 -9.990000
      vertex 28.691306 7.431448 0.000000
    endloop
  endfacet
  facet normal 0.587785 0.809017 0.000000
    outer loop
      vertex 27.000000 8.660254 -9.990000
      vertex 27.000000 8.660254 0.000000
      vertex 28.691306 7.431448 -9.990000
    endloop
  endfacet
  facet normal 0.587785 0.809017 0.000000
    outer loop
      vertex 28.691306 7.431448 -9.990000
      vertex 27.000000 8.660254 0.000000
      vertex 28.691306 7.431448 0.000000
    endloop
  endfacet
  facet normal 0.406737 0.913545 0.000000
    outer loop
      vertex 25.090170 9.510565 -9.990000
      vertex 25.090170 9.510565 0.000000
      vertex 27.000000 8.660254 -9.990000
    endloop
  endfacet
  facet normal 0.406737 0.913545 0.000000
    outer loop
      vertex 27.000000 8.660254 -9.990000
      vertex 25.090170 9.510565 0.000000
      vertex 27.000000 8.660254 0.000000
    endloop
  endfacet
  facet normal 0.207912 0.978148 0.000000
    outer loop
      vertex 23.045285 9.945219 -9.990000
      vertex 23.045285 9.945219 0.000000
      vertex 25.090170 9.510565 -9.990000
    endloop
  endfacet
  facet normal 0.207912 0.978148 0.000000
    outer loop
      vertex 25.090170 9.510565 -9.990000
      vertex 23.045285 9.945219 0.000000
      vertex 25.090170 9.510565 0.000000
    endloop
  endfacet
  facet normal 0.000000 1.000000 0.000000
    outer loop
      vertex 20.954715 9.945219 -9.990000
      vertex 20.954715 9.945219 0.000000
      vertex 23.045285 9.945219 -9.990000
    endloop
  endfacet
  facet normal 0.000000 1.000000 0.000000
    outer loop
      vertex 23.045285 9.945219 -9.990000
      vertex 20.954715 9.945219 0.000000
      vertex 23.045285 9.945219 0.000000
    endloop
  endfacet
  facet normal -0.207912 0.978148 0.000000
    outer loop
      vertex 18.909830 9.510565 -9.990000
      vertex 18.909830 9.510565 0.000000
      vertex 20.954715 9.945219 -9.990000
    endloop
  endfacet
  facet normal -0.207912 0.978148 0.000000
    outer loop
      vertex 20.954715 9.945219 -9.990000
      vertex 18.909830 9.510565 0.000000
      vertex 20.954715 9.945219 0.000000
    endloop
  endfacet
  facet normal -0.406737 0.913545 0.000000
    outer loop
      vertex 17.000000 8.660254 -9.990000
      vertex 17.000000 8.660254 0.000000
      vertex 18.909830 9.510565 -9.990000
    endloop
  endfacet
  facet normal -0.406737 0.913545 0.000000
    outer loop
      vertex 18.909830 9.510565 -9.990000
      vertex 17.000000 8.660254 0.000000
      vertex 18.909830 9.510565 0.000000
    endloop
  endfacet
  facet normal -0.587785 0.809017 0.000000
    outer loop
      vertex 15.308694 7.431448 -9.990000
      vertex 15.308694 7.431448 0.000000
      vertex 17.000000 8.660254 -9.990000
    endloop
  endfacet
  facet normal -0.587785 0.809017 0.000000
    outer loop
      vertex 17.000000 8.660254 -9.990000
      vertex 15.308694 7.431448 0.000000
      vertex 17.000000 8.660254 0.000000
    endloop
  endfacet
  facet normal -0.743145 0.669131 0.000000
    outer loop
      vertex 13.909830 5.877853 -9.990000
      vertex 13.909830 5.877853 0.000000
      vertex 15.308694 7.431448 -9.990000
    endloop
  endfacet
  facet normal -0.743145 0.669131 0.000000
    outer loop
      vertex 15.308694 7.431448 -9.990000
      vertex 13.909830 5.877853 0.000000
      vertex 15.308694 7.431448 0.000000
    endloop
  endfacet
  facet normal -0.866025 0.500000 0.000000
    outer loop
      vertex 12.864545 4.067366 -9.990000
      vertex 12.864545 4.067366 0.000000
      vertex 13.909830 5.877853 -9.990000
    endloop
  endfacet
  facet normal -0.866025 0.500000 0.000000
    outer loop
      vertex 13.909830 5.877853 -9.990000
      vertex 12.864545 4.067366 0.000000
      vertex 13.909830 5.877853 0.000000
    endloop
  endfacet
  facet normal -0.000000 0.000000 -1.000000
    outer loop
      vertex 20.515000 2.572096 -12.620000
      vertex 22.515735 2.924879 -12.620000
      vertex 20.020000 1.982178 -12.620000
    endloop
  endfacet
  facet normal 0.000000 0.000000 -1.000000
    outer loop
      vertex 20.020000 1.982178 -12.620000
      vertex 22.515735 2.924879 -12.620000
      vertex 23.980000 2.079486 -12.620000
    endloop
  endfacet
  facet normal -0.000000 0.000000 -1.000000
    outer loop
      vertex 20.020000 1.982178 -12.620000
      vertex 23.980000 2.079486 -12.620000
      vertex 23.980000 -2.079486 -12.620000
    endloop
  endfacet
  facet normal 0.000000 0.000000 -1.000000
    outer loop
      vertex 20.020000 1.982178 -12.620000
      vertex 23.980000 -2.079486 -12.620000
      vertex 22.515735 -2.924879 -12.620000
    endloop
  endfacet
  facet normal 0.000000 0.000000 -1.000000
    outer loop
      vertex 20.020000 1.982178 -12.620000
      vertex 22.515735 -2.924879 -12.620000
      vertex 20.515000 -2.572096 -12.620000
    endloop
  endfacet
  facet normal 0.000000 0.000000 -1.000000
    outer loop
      vertex 20.020000 1.982178 -12.620000
      vertex 20.515000 -2.572096 -12.620000
      vertex 20.020000 -1.982178 -12.620000
    endloop
  endfacet
  facet normal 0.000000 0.000000 1.000000
    outer loop
      vertex 12.218524 -2.079117 0.000000
      vertex 12.864545 -4.067366 0.000000
      vertex 13.909830 -5.877853 0.000000
    endloop
  endfacet
  facet normal 0.000000 0.000000 1.000000
    outer loop
      vertex 17.000000 -8.660254 0.000000
      vertex 12.218524 -2.079117 0.000000
      vertex 15.308694 -7.431448 0.000000
    endloop
  endfacet
  facet normal 0.000000 0.000000 1.000000
    outer loop
      vertex 15.308694 -7.431448 0.000000
      vertex 12.218524 -2.079117 0.000000
      vertex 13.909830 -5.877853 0.000000
    endloop
  endfacet
  facet normal 0.000000 0.000000 1.000000
    outer loop
      vertex 18.909830 -9.510565 0.000000
      vertex 12.218524 -2.079117 0.000000
      vertex 17.000000 -8.660254 0.000000
    endloop
  endfacet
  facet normal 0.000000 0.000000 1.000000
    outer loop
      vertex 20.954715 -9.945219 0.000000
      vertex 12.218524 -2.079117 0.000000
      vertex 18.909830 -9.510565 0.000000
    endloop
  endfacet
  facet normal -0.000000 0.000000 1.000000
    outer loop
      vertex 23.045285 -9.945219 0.000000
      vertex 12.218524 -2.079117 0.000000
      vertex 20.954715 -9.945219 0.000000
    endloop
  endfacet
  facet normal -0.000000 0.000000 1.000000
    outer loop
      vertex 25.090170 -9.510565 0.000000
      vertex 12.218524 -2.079117 0.000000
      vertex 23.045285 -9.945219 0.000000
    endloop
  endfacet
  facet normal -0.000000 0.000000 1.000000
    outer loop
      vertex 27.000000 -8.660254 0.000000
      vertex 12.218524 -2.079117 0.000000
      vertex 25.090170 -9.510565 0.000000
    endloop
  endfacet
  facet normal -0.000000 0.000000 1.000000
    outer loop
      vertex 28.691306 -7.431448 0.000000
      vertex 12.218524 -2.079117 0.000000
      vertex 27.000000 -8.660254 0.000000
    endloop
  endfacet
  facet normal -0.000000 0.000000 1.000000
    outer loop
      vertex 30.090170 -5.877853 0.000000
      vertex 12.218524 -2.079117 0.000000
      vertex 28.691306 -7.431448 0.000000
    endloop
  endfacet
  facet normal -0.000000 0.000000 1.000000
    outer loop
      vertex 31.135455 -4.067366 0.000000
      vertex 12.218524 -2.079117 0.000000
      vertex 30.090170 -5.877853 0.000000
    endloop
  endfacet
  facet normal -0.000000 -0.000000 1.000000
    outer loop
      vertex 19.500000 -2.500000 0.000000
      vertex 12.218524 -2.079117 0.000000
      vertex 31.135455 -4.067366 0.000000
    endloop
  endfacet
  facet normal 0.000000 -0.000000 1.000000
    outer loop
      vertex 24.500000 2.500000 0.000000
      vertex 24.500000 -2.500000 0.000000
      vertex 31.781476 -2.079117 0.000000
    endloop
  endfacet
  facet normal 0.000000 0.000000 1.000000
    outer loop
      vertex 24.500000 2.500000 0.000000
      vertex 32.000000 0.000000 0.000000
      vertex 31.781476 2.079117 0.000000
    endloop
  endfacet
  facet normal 0.000000 -0.000000 1.000000
    outer loop
      vertex 25.090170 9.510565 0.000000
      vertex 12.218524 -2.079117 0.000000
      vertex 27.000000 8.660254 0.000000
    endloop
  endfacet
  facet normal 0.000000 -0.000000 1.000000
    outer loop
      vertex 23.045285 9.945219 0.000000
      vertex 12.218524 -2.079117 0.000000
      vertex 25.090170 9.510565 0.000000
    endloop
  endfacet
  facet normal 0.000000 -0.000000 1.000000
    outer loop
      vertex 20.954715 9.945219 0.000000
      vertex 12.218524 -2.079117 0.000000
      vertex 23.045285 9.945219 0.000000
    endloop
  endfacet
  facet normal 0.000000 -0.000000 1.000000
    outer loop
      vertex 18.909830 9.510565 0.000000
      vertex 12.218524 -2.079117 0.000000
      vertex 20.954715 9.945219 0.000000
    endloop
  endfacet
  facet normal 0.000000 -0.000000 1.000000
    outer loop
      vertex 17.000000 8.660254 0.000000
      vertex 12.218524 -2.079117 0.000000
      vertex 18.909830 9.510565 0.000000
    endloop
  endfacet
  facet normal 0.000000 -0.000000 1.000000
    outer loop
      vertex 15.308694 7.431448 0.000000
      vertex 12.218524 -2.079117 0.000000
      vertex 17.000000 8.660254 0.000000
    endloop
  endfacet
  facet normal 0.000000 -0.000000 1.000000
    outer loop
      vertex 13.909830 5.877853 0.000000
      vertex 12.218524 -2.079117 0.000000
      vertex 15.308694 7.431448 0.000000
    endloop
  endfacet
  facet normal 0.000000 -0.000000 1.000000
    outer loop
      vertex 12.864545 4.067366 0.000000
      vertex 12.218524 -2.079117 0.000000
      vertex 13.909830 5.877853 0.000000
    endloop
  endfacet
  facet normal 0.000000 -0.000000 1.000000
    outer loop
      vertex 12.218524 2.079117 0.000000
      vertex 12.218524 -2.079117 0.000000
      vertex 12.864545 4.067366 0.000000
    endloop
  endfacet
  facet normal 0.000000 0.000000 1.000000
    outer loop
      vertex 12.000000 0.000000 0.000000
      vertex 12.218524 -2.079117 0.000000
      vertex 12.218524 2.079117 0.000000
    endloop
  endfacet
  facet normal 0.000000 -0.000000 1.000000
    outer loop
      vertex 27.000000 8.660254 0.000000
      vertex 19.500000 2.500000 0.000000
      vertex 28.691306 7.431448 0.000000
    endloop
  endfacet
  facet normal 0.000000 0.000000 1.000000
    outer loop
      vertex 27.000000 8.660254 0.000000
      vertex 12.218524 -2.079117 0.000000
      vertex 19.500000 2.500000 0.000000
    endloop
  endfacet
  facet normal 0.000000 -0.000000 1.000000
    outer loop
      vertex 30.090170 5.877853 0.000000
      vertex 24.500000 2.500000 0.000000
      vertex 31.135455 4.067366 0.000000
    endloop
  endfacet
  facet normal 0.000000 0.000000 1.000000
    outer loop
      vertex 24.500000 2.500000 0.000000
      vertex 31.781476 -2.079117 0.000000
      vertex 32.000000 0.000000 0.000000
    endloop
  endfacet
  facet normal 0.000000 0.000000 1.000000
    outer loop
      vertex 31.781476 -2.079117 0.000000
      vertex 24.500000 -2.500000 0.000000
      vertex 31.135455 -4.067366 0.000000
    endloop
  endfacet
  facet normal 0.000000 -0.000000 1.000000
    outer loop
      vertex 24.500000 -2.500000 0.000000
      vertex 19.500000 -2.500000 0.000000
      vertex 31.135455 -4.067366 0.000000
    endloop
  endfacet
  facet normal 0.000000 0.000000 1.000000
    outer loop
      vertex 19.500000 2.500000 0.000000
      vertex 30.090170 5.877853 0.000000
      vertex 28.691306 7.431448 0.000000
    endloop
  endfacet
  facet normal 0.000000 0.000000 1.000000
    outer loop
      vertex 19.500000 2.500000 0.000000
      vertex 24.500000 2.500000 0.000000
      vertex 30.090170 5.877853 0.000000
    endloop
  endfacet
  facet normal 0.000000 0.000000 1.000000
    outer loop
      vertex 24.500000 2.500000 0.000000
      vertex 31.781476 2.079117 0.000000
      vertex 31.135455 4.067366 0.000000
    endloop
  endfacet
  facet normal 0.000000 0.000000 1.000000
    outer loop
      vertex 19.500000 -2.500000 0.000000
      vertex 19.500000 2.500000 0.000000
      vertex 12.218524 -2.079117 0.000000
    endloop
  endfacet
  facet normal 1.000000 0.000000 0.000000
    outer loop
      vertex 19.500000 2.500000 -4.990000
      vertex 19.500000 2.500000 0.000000
      vertex 19.500000 -2.500000 0.000000
    endloop
  endfacet
  facet normal 1.000000 0.000000 0.000000
    outer loop
      vertex 19.500000 -2.500000 -4.990000
      vertex 19.500000 2.500000 -4.990000
      vertex 19.500000 -2.500000 0.000000
    endloop
  endfacet
  facet normal 0.000000 -1.000000 0.000000
    outer loop
      vertex 24.500000 2.500000 -4.990000
      vertex 24.500000 2.500000 0.000000
      vertex 19.500000 2.500000 0.000000
    endloop
  endfacet
  facet normal -0.000000 -1.000000 -0.000000
    outer loop
      vertex 19.500000 2.500000 -4.990000
      vertex 24.500000 2.500000 -4.990000
      vertex 19.500000 2.500000 0.000000
    endloop
  endfacet
  facet normal 0.000000 1.000000 0.000000
    outer loop
      vertex 24.500000 -2.500000 0.000000
      vertex 24.500000 -2.500000 -4.990000
      vertex 19.500000 -2.500000 0.000000
    endloop
  endfacet
  facet normal 0.000000 1.000000 -0.000000
    outer loop
      vertex 19.500000 -2.500000 0.000000
      vertex 24.500000 -2.500000 -4.990000
      vertex 19.500000 -2.500000 -4.990000
    endloop
  endfacet
  facet normal -1.000000 0.000000 0.000000
    outer loop
      vertex 24.500000 2.500000 0.000000
      vertex 24.500000 2.500000 -4.990000
      vertex 24.500000 -2.500000 0.000000
    endloop
  endfacet
  facet normal -1.000000 0.000000 0.000000
    outer loop
      vertex 24.500000 -2.500000 0.000000
      vertex 24.500000 2.500000 -4.990000
      vertex 24.500000 -2.500000 -4.990000
    endloop
  endfacet
  facet normal 0.000000 0.000000 1.000000
    outer loop
      vertex 24.500000 -2.500000 -4.990000
      vertex 24.500000 2.500000 -4.990000
      vertex 19.500000 2.500000 -4.990000
    endloop
  endfacet
  facet normal 0.000000 0.000000 1.000000
    outer loop
      vertex 19.500000 -2.500000 -4.990000
      vertex 24.500000 -2.500000 -4.990000
      vertex 19.500000 2.500000 -4.990000
    endloop
  endfacet
  facet normal -0.000000 0.000000 -1.000000
    outer loop
      vertex -42.000000 0.000000 -19.990000
      vertex -41.562952 4.158234 -19.990000
      vertex -41.562952 -4.158234 -19.990000
    endloop
  endfacet
  facet normal 0.000000 -0.000000 -1.000000
    outer loop
      vertex -41.562952 -4.158234 -19.990000
      vertex -41.562952 4.158234 -19.990000
      vertex -40.270909 8.134733 -19.990000
    endloop
  endfacet
  facet normal 0.000000 0.000000 -1.000000
    outer loop
      vertex -41.562952 -4.158234 -19.990000
      vertex -40.270909 8.134733 -19.990000
      vertex -38.180340 11.755705 -19.990000
    endloop
  endfacet
  facet normal 0.000000 0.000000 -1.000000
    outer loop
      vertex -41.562952 -4.158234 -19.990000
      vertex -38.180340 11.755705 -19.990000
      vertex -35.382612 14.862897 -19.990000
    endloop
  endfacet
  facet normal 0.000000 0.000000 -1.000000
    outer loop
      vertex -41.562952 -4.158234 -19.990000
      vertex -35.382612 14.862897 -19.990000
      vertex -32.000000 17.320508 -19.990000
    endloop
  endfacet
  facet normal 0.000000 0.000000 -1.000000
    outer loop
      vertex -41.562952 -4.158234 -19.990000
      vertex -32.000000 17.320508 -19.990000
      vertex -28.180340 19.021130 -19.990000
    endloop
  endfacet
  facet normal 0.000000 0.000000 -1.000000
    outer loop
      vertex -41.562952 -4.158234 -19.990000
      vertex -28.180340 19.021130 -19.990000
      vertex -24.090569 19.890438 -19.990000
    endloop
  endfacet
  facet normal 0.000000 -0.000000 -1.000000
    outer loop
      vertex -41.562952 -4.158234 -19.990000
      vertex -24.090569 19.890438 -19.990000
      vertex -19.909431 19.890438 -19.990000
    endloop
  endfacet
  facet normal 0.000000 0.000000 -1.000000
    outer loop
      vertex -41.562952 -4.158234 -19.990000
      vertex -19.909431 19.890438 -19.990000
      vertex -15.819660 19.021130 -19.990000
    endloop
  endfacet
  facet normal 0.000000 0.000000 -1.000000
    outer loop
      vertex -41.562952 -4.158234 -19.990000
      vertex -15.819660 19.021130 -19.990000
      vertex -12.000000 17.320508 -19.990000
    endloop
  endfacet
  facet normal 0.000000 0.000000 -1.000000
    outer loop
      vertex -41.562952 -4.158234 -19.990000
      vertex -12.000000 17.320508 -19.990000
      vertex -8.617388 14.862897 -19.990000
    endloop
  endfacet
  facet normal 0.000000 0.000000 -1.000000
    outer loop
      vertex -41.562952 -4.158234 -19.990000
      vertex -8.617388 14.862897 -19.990000
      vertex -5.819660 11.755705 -19.990000
    endloop
  endfacet
  facet normal 0.000000 0.000000 -1.000000
    outer loop
      vertex -21.484265 2.924879 -19.990000
      vertex -5.819660 11.755705 -19.990000
      vertex -3.729091 8.134733 -19.990000
    endloop
  endfacet
  facet normal 0.000000 0.000000 -1.000000
    outer loop
      vertex -20.020000 2.079486 -19.990000
      vertex -3.729091 8.134733 -19.990000
      vertex -2.437048 4.158234 -19.990000
    endloop
  endfacet
  facet normal 0.000000 0.000000 -1.000000
    outer loop
      vertex -20.020000 2.079486 -19.990000
      vertex -2.000000 0.000000 -19.990000
      vertex -20.020000 -2.079486 -19.990000
    endloop
  endfacet
  facet normal 0.000000 -0.000000 -1.000000
    outer loop
      vertex -41.562952 -4.158234 -19.990000
      vertex -2.437048 -4.158234 -19.990000
      vertex -3.729091 -8.134733 -19.990000
    endloop
  endfacet
  facet normal 0.000000 -0.000000 -1.000000
    outer loop
      vertex -41.562952 -4.158234 -19.990000
      vertex -3.729091 -8.134733 -19.990000
      vertex -5.819660 -11.755705 -19.990000
    endloop
  endfacet
  facet normal 0.000000 -0.000000 -1.000000
    outer loop
      vertex -41.562952 -4.158234 -19.990000
      vertex -5.819660 -11.755705 -19.990000
      vertex -8.617388 -14.862897 -19.990000
    endloop
  endfacet
  facet normal 0.000000 -0.000000 -1.000000
    outer loop
      vertex -41.562952 -4.158234 -19.990000
      vertex -8.617388 -14.862897 -19.990000
      vertex -12.000000 -17.320508 -19.990000
    endloop
  endfacet
  facet normal 0.000000 -0.000000 -1.000000
    outer loop
      vertex -41.562952 -4.158234 -19.990000
      vertex -12.000000 -17.320508 -19.990000
      vertex -15.819660 -19.021130 -19.990000
    endloop
  endfacet
  facet normal 0.000000 -0.000000 -1.000000
    outer loop
      vertex -41.562952 -4.158234 -19.990000
      vertex -15.819660 -19.021130 -19.990000
      vertex -19.909431 -19.890438 -19.990000
    endloop
  endfacet
  facet normal 0.000000 0.000000 -1.000000
    outer loop
      vertex -41.562952 -4.158234 -19.990000
      vertex -19.909431 -19.890438 -19.990000
      vertex -24.090569 -19.890438 -19.990000
    endloop
  endfacet
  facet normal 0.000000 0.000000 -1.000000
    outer loop
      vertex -41.562952 -4.158234 -19.990000
      vertex -24.090569 -19.890438 -19.990000
      vertex -28.180340 -19.021130 -19.990000
    endloop
  endfacet
  facet normal 0.000000 0.000000 -1.000000
    outer loop
      vertex -41.562952 -4.158234 -19.990000
      vertex -28.180340 -19.021130 -19.990000
      vertex -32.000000 -17.320508 -19.990000
    endloop
  endfacet
  facet normal 0.000000 0.000000 -1.000000
    outer loop
      vertex -41.562952 -4.158234 -19.990000
      vertex -32.000000 -17.320508 -19.990000
      vertex -35.382612 -14.862897 -19.990000
    endloop
  endfacet
  facet normal 0.000000 0.000000 -1.000000
    outer loop
      vertex -41.562952 -4.158234 -19.990000
      vertex -35.382612 -14.862897 -19.990000
      vertex -38.180340 -11.755705 -19.990000
    endloop
  endfacet
  facet normal 0.000000 0.000000 -1.000000
    outer loop
      vertex -41.562952 -4.158234 -19.990000
      vertex -38.180340 -11.755705 -19.990000
      vertex -40.270909 -8.134733 -19.990000
    endloop
  endfacet
  facet normal 0.000000 0.000000 -1.000000
    outer loop
      vertex -23.485000 -2.572096 -19.990000
      vertex -41.562952 -4.158234 -19.990000
      vertex -23.980000 -1.982178 -19.990000
    endloop
  endfacet
  facet normal -0.000000 0.000000 -1.000000
    outer loop
      vertex -20.020000 2.079486 -19.990000
      vertex -2.437048 4.158234 -19.990000
      vertex -2.000000 0.000000 -19.990000
    endloop
  endfacet
  facet normal 0.000000 -0.000000 -1.000000
    outer loop
      vertex -41.562952 -4.158234 -19.990000
      vertex -23.485000 -2.572096 -19.990000
      vertex -21.484265 -2.924879 -19.990000
    endloop
  endfacet
  facet normal 0.000000 0.000000 -1.000000
    outer loop
      vertex -41.562952 -4.158234 -19.990000
      vertex -21.484265 -2.924879 -19.990000
      vertex -2.437048 -4.158234 -19.990000
    endloop
  endfacet
  facet normal 0.000000 0.000000 -1.000000
    outer loop
      vertex -20.020000 -2.079486 -19.990000
      vertex -2.437048 -4.158234 -19.990000
      vertex -21.484265 -2.924879 -19.990000
    endloop
  endfacet
  facet normal -0.000000 0.000000 -1.000000
    outer loop
      vertex -20.020000 -2.079486 -19.990000
      vertex -2.000000 0.000000 -19.990000
      vertex -2.437048 -4.158234 -19.990000
    endloop
  endfacet
  facet normal 0.000000 -0.000000 -1.000000
    outer loop
      vertex -23.485000 2.572096 -19.990000
      vertex -5.819660 11.755705 -19.990000
      vertex -21.484265 2.924879 -19.990000
    endloop
  endfacet
  facet normal -0.000000 0.000000 -1.000000
    outer loop
      vertex -41.562952 -4.158234 -19.990000
      vertex -5.819660 11.755705 -19.990000
      vertex -23.485000 2.572096 -19.990000
    endloop
  endfacet
  facet normal 0.000000 0.000000 -1.000000
    outer loop
      vertex -41.562952 -4.158234 -19.990000
      vertex -23.485000 2.572096 -19.990000
      vertex -23.980000 1.982178 -19.990000
    endloop
  endfacet
  facet normal 0.000000 0.000000 -1.000000
    outer loop
      vertex -23.980000 -1.982178 -19.990000
      vertex -41.562952 -4.158234 -19.990000
      vertex -23.980000 1.982178 -19.990000
    endloop
  endfacet
  facet normal -0.000000 0.000000 -1.000000
    outer loop
      vertex -21.484265 2.924879 -19.990000
      vertex -3.729091 8.134733 -19.990000
      vertex -20.020000 2.079486 -19.990000
    endloop
  endfacet
  facet normal -0.705162 0.074116 0.705162
    outer loop
      vertex -42.000000 0.000000 -19.990000
      vertex -32.000000 0.000000 -9.990000
      vertex -41.562952 4.158234 -19.990000
    endloop
  endfacet
  facet normal -0.705162 0.074116 0.705162
    outer loop
      vertex -41.562952 4.158234 -19.990000
      vertex -32.000000 0.000000 -9.990000
      vertex -31.781476 2.079117 -9.990000
    endloop
  endfacet
  facet normal -0.705162 -0.074116 0.705162
    outer loop
      vertex -42.000000 0.000000 -19.990000
      vertex -41.562952 -4.158234 -19.990000
      vertex -32.000000 0.000000 -9.990000
    endloop
  endfacet
  facet normal -0.705162 -0.074116 0.705162
    outer loop
      vertex -32.000000 0.000000 -9.990000
      vertex -41.562952 -4.158234 -19.990000
      vertex -31.781476 -2.079117 -9.990000
    endloop
  endfacet
  facet normal -0.674343 -0.219107 0.705162
    outer loop
      vertex -31.781476 -2.079117 -9.990000
      vertex -41.562952 -4.158234 -19.990000
      vertex -40.270909 -8.134733 -19.990000
    endloop
  endfacet
  facet normal -0.674343 -0.219107 0.705162
    outer loop
      vertex -31.781476 -2.079117 -9.990000
      vertex -40.270909 -8.134733 -19.990000
      vertex -31.135455 -4.067366 -9.990000
    endloop
  endfacet
  facet normal -0.614052 -0.354523 0.705162
    outer loop
      vertex -31.135455 -4.067366 -9.990000
      vertex -40.270909 -8.134733 -19.990000
      vertex -38.180340 -11.755705 -19.990000
    endloop
  endfacet
  facet normal -0.614052 -0.354523 0.705162
    outer loop
      vertex -31.135455 -4.067366 -9.990000
      vertex -38.180340 -11.755705 -19.990000
      vertex -30.090170 -5.877853 -9.990000
    endloop
  endfacet
  facet normal -0.526924 -0.474445 0.705162
    outer loop
      vertex -30.090170 -5.877853 -9.990000
      vertex -38.180340 -11.755705 -19.990000
      vertex -35.382612 -14.862897 -19.990000
    endloop
  endfacet
  facet normal -0.526924 -0.474445 0.705162
    outer loop
      vertex -30.090170 -5.877853 -9.990000
      vertex -35.382612 -14.862897 -19.990000
      vertex -28.691306 -7.431448 -9.990000
    endloop
  endfacet
  facet normal -0.416767 -0.573630 0.705162
    outer loop
      vertex -28.691306 -7.431448 -9.990000
      vertex -35.382612 -14.862897 -19.990000
      vertex -32.000000 -17.320508 -19.990000
    endloop
  endfacet
  facet normal -0.416767 -0.573630 0.705162
    outer loop
      vertex -28.691306 -7.431448 -9.990000
      vertex -32.000000 -17.320508 -19.990000
      vertex -27.000000 -8.660254 -9.990000
    endloop
  endfacet
  facet normal -0.288395 -0.647746 0.705162
    outer loop
      vertex -27.000000 -8.660254 -9.990000
      vertex -32.000000 -17.320508 -19.990000
      vertex -28.180340 -19.021130 -19.990000
    endloop
  endfacet
  facet normal -0.288395 -0.647746 0.705162
    outer loop
      vertex -25.090170 -9.510565 -9.990000
      vertex -27.000000 -8.660254 -9.990000
      vertex -28.180340 -19.021130 -19.990000
    endloop
  endfacet
  facet normal -0.147419 -0.693552 0.705162
    outer loop
      vertex -25.090170 -9.510565 -9.990000
      vertex -28.180340 -19.021130 -19.990000
      vertex -24.090569 -19.890438 -19.990000
    endloop
  endfacet
  facet normal -0.147419 -0.693552 0.705162
    outer loop
      vertex -23.045285 -9.945219 -9.990000
      vertex -25.090170 -9.510565 -9.990000
      vertex -24.090569 -19.890438 -19.990000
    endloop
  endfacet
  facet normal -0.000000 -0.709046 0.705162
    outer loop
      vertex -23.045285 -9.945219 -9.990000
      vertex -24.090569 -19.890438 -19.990000
      vertex -19.909431 -19.890438 -19.990000
    endloop
  endfacet
  facet normal -0.000000 -0.709046 0.705162
    outer loop
      vertex -20.954715 -9.945219 -9.990000
      vertex -23.045285 -9.945219 -9.990000
      vertex -19.909431 -19.890438 -19.990000
    endloop
  endfacet
  facet normal 0.147419 -0.693552 0.705162
    outer loop
      vertex -15.819660 -19.021130 -19.990000
      vertex -20.954715 -9.945219 -9.990000
      vertex -19.909431 -19.890438 -19.990000
    endloop
  endfacet
  facet normal 0.147419 -0.693552 0.705162
    outer loop
      vertex -18.909830 -9.510565 -9.990000
      vertex -20.954715 -9.945219 -9.990000
      vertex -15.819660 -19.021130 -19.990000
    endloop
  endfacet
  facet normal 0.288395 -0.647746 0.705162
    outer loop
      vertex -17.000000 -8.660254 -9.990000
      vertex -18.909830 -9.510565 -9.990000
      vertex -15.819660 -19.021130 -19.990000
    endloop
  endfacet
  facet normal 0.288395 -0.647746 0.705162
    outer loop
      vertex -12.000000 -17.320508 -19.990000
      vertex -17.000000 -8.660254 -9.990000
      vertex -15.819660 -19.021130 -19.990000
    endloop
  endfacet
  facet normal 0.416767 -0.573630 0.705162
    outer loop
      vertex -8.617388 -14.862897 -19.990000
      vertex -17.000000 -8.660254 -9.990000
      vertex -12.000000 -17.320508 -19.990000
    endloop
  endfacet
  facet normal 0.416767 -0.573630 0.705162
    outer loop
      vertex -15.308694 -7.431448 -9.990000
      vertex -17.000000 -8.660254 -9.990000
      vertex -8.617388 -14.862897 -19.990000
    endloop
  endfacet
  facet normal 0.526924 -0.474445 0.705162
    outer loop
      vertex -5.819660 -11.755705 -19.990000
      vertex -15.308694 -7.431448 -9.990000
      vertex -8.617388 -14.862897 -19.990000
    endloop
  endfacet
  facet normal 0.526924 -0.474445 0.705162
    outer loop
      vertex -13.909830 -5.877853 -9.990000
      vertex -15.308694 -7.431448 -9.990000
      vertex -5.819660 -11.755705 -19.990000
    endloop
  endfacet
  facet normal 0.614052 -0.354523 0.705162
    outer loop
      vertex -3.729091 -8.134733 -19.990000
      vertex -13.909830 -5.877853 -9.990000
      vertex -5.819660 -11.755705 -19.990000
    endloop
  endfacet
  facet normal 0.614052 -0.354523 0.705162
    outer loop
      vertex -12.864545 -4.067366 -9.990000
      vertex -13.909830 -5.877853 -9.990000
      vertex -3.729091 -8.134733 -19.990000
    endloop
  endfacet
  facet normal 0.674343 -0.219107 0.705162
    outer loop
      vertex -2.437048 -4.158234 -19.990000
      vertex -12.864545 -4.067366 -9.990000
      vertex -3.729091 -8.134733 -19.990000
    endloop
  endfacet
  facet normal 0.674343 -0.219107 0.705162
    outer loop
      vertex -12.218524 -2.079117 -9.990000
      vertex -12.864545 -4.067366 -9.990000
      vertex -2.437048 -4.158234 -19.990000
    endloop
  endfacet
  facet normal 0.705162 -0.074116 0.705162
    outer loop
      vertex -12.000000 0.000000 -9.990000
      vertex -12.218524 -2.079117 -9.990000
      vertex -2.437048 -4.158234 -19.990000
    endloop
  endfacet
  facet normal 0.705162 -0.074116 0.705162
    outer loop
      vertex -2.000000 0.000000 -19.990000
      vertex -12.000000 0.000000 -9.990000
      vertex -2.437048 -4.158234 -19.990000
    endloop
  endfacet
  facet normal 0.705162 0.074116 0.705162
    outer loop
      vertex -2.437048 4.158234 -19.990000
      vertex -12.218524 2.079117 -9.990000
      vertex -12.000000 0.000000 -9.990000
    endloop
  endfacet
  facet normal 0.705162 0.074116 0.705162
    outer loop
      vertex -2.000000 0.000000 -19.990000
      vertex -2.437048 4.158234 -19.990000
      vertex -12.000000 0.000000 -9.990000
    endloop
  endfacet
  facet normal 0.674343 0.219107 0.705162
    outer loop
      vertex -3.729091 8.134733 -19.990000
      vertex -12.218524 2.079117 -9.990000
      vertex -2.437048 4.158234 -19.990000
    endloop
  endfacet
  facet normal 0.674343 0.219107 0.705162
    outer loop
      vertex -3.729091 8.134733 -19.990000
      vertex -12.864545 4.067366 -9.990000
      vertex -12.218524 2.079117 -9.990000
    endloop
  endfacet
  facet normal 0.614052 0.354523 0.705162
    outer loop
      vertex -5.819660 11.755705 -19.990000
      vertex -12.864545 4.067366 -9.990000
      vertex -3.729091 8.134733 -19.990000
    endloop
  endfacet
  facet normal 0.614052 0.354523 0.705162
    outer loop
      vertex -5.819660 11.755705 -19.990000
      vertex -13.909830 5.877853 -9.990000
      vertex -12.864545 4.067366 -9.990000
    endloop
  endfacet
  facet normal 0.526924 0.474445 0.705162
    outer loop
      vertex -8.617388 14.862897 -19.990000
      vertex -13.909830 5.877853 -9.990000
      vertex -5.819660 11.755705 -19.990000
    endloop
  endfacet
  facet normal 0.526924 0.474445 0.705162
    outer loop
      vertex -8.617388 14.862897 -19.990000
      vertex -15.308694 7.431448 -9.990000
      vertex -13.909830 5.877853 -9.990000
    endloop
  endfacet
  facet normal 0.416767 0.573630 0.705162
    outer loop
      vertex -12.000000 17.320508 -19.990000
      vertex -15.308694 7.431448 -9.990000
      vertex -8.617388 14.862897 -19.990000
    endloop
  endfacet
  facet normal 0.416767 0.573630 0.705162
    outer loop
      vertex -12.000000 17.320508 -19.990000
      vertex -17.000000 8.660254 -9.990000
      vertex -15.308694 7.431448 -9.990000
    endloop
  endfacet
  facet normal 0.288395 0.647746 0.705162
    outer loop
      vertex -15.819660 19.021130 -19.990000
      vertex -18.909830 9.510565 -9.990000
      vertex -17.000000 8.660254 -9.990000
    endloop
  endfacet
  facet normal 0.288395 0.647746 0.705162
    outer loop
      vertex -12.000000 17.320508 -19.990000
      vertex -15.819660 19.021130 -19.990000
      vertex -17.000000 8.660254 -9.990000
    endloop
  endfacet
  facet normal 0.147419 0.693552 0.705162
    outer loop
      vertex -15.819660 19.021130 -19.990000
      vertex -19.909431 19.890438 -19.990000
      vertex -18.909830 9.510565 -9.990000
    endloop
  endfacet
  facet normal 0.147419 0.693552 0.705162
    outer loop
      vertex -19.909431 19.890438 -19.990000
      vertex -20.954715 9.945219 -9.990000
      vertex -18.909830 9.510565 -9.990000
    endloop
  endfacet
  facet normal -0.000000 0.709046 0.705162
    outer loop
      vertex -24.090569 19.890438 -19.990000
      vertex -23.045285 9.945219 -9.990000
      vertex -19.909431 19.890438 -19.990000
    endloop
  endfacet
  facet normal -0.000000 0.709046 0.705162
    outer loop
      vertex -19.909431 19.890438 -19.990000
      vertex -23.045285 9.945219 -9.990000
      vertex -20.954715 9.945219 -9.990000
    endloop
  endfacet
  facet normal -0.147419 0.693552 0.705162
    outer loop
      vertex -24.090569 19.890438 -19.990000
      vertex -28.180340 19.021130 -19.990000
      vertex -23.045285 9.945219 -9.990000
    endloop
  endfacet
  facet normal -0.147419 0.693552 0.705162
    outer loop
      vertex -23.045285 9.945219 -9.990000
      vertex -28.180340 19.021130 -19.990000
      vertex -25.090170 9.510565 -9.990000
    endloop
  endfacet
  facet normal -0.288395 0.647746 0.705162
    outer loop
      vertex -28.180340 19.021130 -19.990000
      vertex -32.000000 17.320508 -19.990000
      vertex -27.000000 8.660254 -9.990000
    endloop
  endfacet
  facet normal -0.288395 0.647746 0.705162
    outer loop
      vertex -25.090170 9.510565 -9.990000
      vertex -28.180340 19.021130 -19.990000
      vertex -27.000000 8.660254 -9.990000
    endloop
  endfacet
  facet normal -0.416767 0.573630 0.705162
    outer loop
      vertex -32.000000 17.320508 -19.990000
      vertex -35.382612 14.862897 -19.990000
      vertex -27.000000 8.660254 -9.990000
    endloop
  endfacet
  facet normal -0.416767 0.573630 0.705162
    outer loop
      vertex -27.000000 8.660254 -9.990000
      vertex -35.382612 14.862897 -19.990000
      vertex -28.691306 7.431448 -9.990000
    endloop
  endfacet
  facet normal -0.526924 0.474445 0.705162
    outer loop
      vertex -35.382612 14.862897 -19.990000
      vertex -38.180340 11.755705 -19.990000
      vertex -28.691306 7.431448 -9.990000
    endloop
  endfacet
  facet normal -0.526924 0.474445 0.705162
    outer loop
      vertex -28.691306 7.431448 -9.990000
      vertex -38.180340 11.755705 -19.990000
      vertex -30.090170 5.877853 -9.990000
    endloop
  endfacet
  facet normal -0.614052 0.354523 0.705162
    outer loop
      vertex -38.180340 11.755705 -19.990000
      vertex -40.270909 8.134733 -19.990000
      vertex -30.090170 5.877853 -9.990000
    endloop
  endfacet
  facet normal -0.614052 0.354523 0.705162
    outer loop
      vertex -30.090170 5.877853 -9.990000
      vertex -40.270909 8.134733 -19.990000
      vertex -31.135455 4.067366 -9.990000
    endloop
  endfacet
  facet normal -0.674343 0.219107 0.705162
    outer loop
      vertex -40.270909 8.134733 -19.990000
      vertex -41.562952 4.158234 -19.990000
      vertex -31.135455 4.067366 -9.990000
    endloop
  endfacet
  facet normal -0.674343 0.219107 0.705162
    outer loop
      vertex -31.135455 4.067366 -9.990000
      vertex -41.562952 4.158234 -19.990000
      vertex -31.781476 2.079117 -9.990000
    endloop
  endfacet
  facet normal 1.000000 0.000000 0.000000
    outer loop
      vertex -23.980000 1.982178 -12.620000
      vertex -23.980000 -1.982178 -12.620000
      vertex -23.980000 -1.982178 -19.990000
    endloop
  endfacet
  facet normal 1.000000 -0.000000 0.000000
    outer loop
      vertex -23.980000 1.982178 -19.990000
      vertex -23.980000 1.982178 -12.620000
      vertex -23.980000 -1.982178 -19.990000
    endloop
  endfacet
  facet normal 0.766045 -0.642787 0.000000
    outer loop
      vertex -23.980000 1.982178 -19.990000
      vertex -23.485000 2.572096 -19.990000
      vertex -23.485000 2.572096 -12.620000
    endloop
  endfacet
  facet normal 0.766045 -0.642787 0.000000
    outer loop
      vertex -23.980000 1.982178 -12.620000
      vertex -23.980000 1.982178 -19.990000
      vertex -23.485000 2.572096 -12.620000
    endloop
  endfacet
  facet normal 0.173648 -0.984808 0.000000
    outer loop
      vertex -23.485000 2.572096 -19.990000
      vertex -21.484265 2.924879 -19.990000
      vertex -21.484265 2.924879 -12.620000
    endloop
  endfacet
  facet normal 0.173648 -0.984808 0.000000
    outer loop
      vertex -23.485000 2.572096 -12.620000
      vertex -23.485000 2.572096 -19.990000
      vertex -21.484265 2.924879 -12.620000
    endloop
  endfacet
  facet normal -0.500000 -0.866026 0.000000
    outer loop
      vertex -21.484265 2.924879 -19.990000
      vertex -20.020000 2.079486 -19.990000
      vertex -20.020000 2.079486 -12.620000
    endloop
  endfacet
  facet normal -0.500000 -0.866026 0.000000
    outer loop
      vertex -21.484265 2.924879 -12.620000
      vertex -21.484265 2.924879 -19.990000
      vertex -20.020000 2.079486 -12.620000
    endloop
  endfacet
  facet normal -1.000000 0.000000 0.000000
    outer loop
      vertex -20.020000 -2.079486 -12.620000
      vertex -20.020000 2.079486 -12.620000
      vertex -20.020000 -2.079486 -19.990000
    endloop
  endfacet
  facet normal -1.000000 -0.000000 0.000000
    outer loop
      vertex -20.020000 -2.079486 -19.990000
      vertex -20.020000 2.079486 -12.620000
      vertex -20.020000 2.079486 -19.990000
    endloop
  endfacet
  facet normal -0.500000 0.866026 0.000000
    outer loop
      vertex -20.020000 -2.079486 -19.990000
      vertex -21.484265 -2.924879 -19.990000
      vertex -20.020000 -2.079486 -12.620000
    endloop
  endfacet
  facet normal -0.500000 0.866026 0.000000
    outer loop
      vertex -20.020000 -2.079486 -12.620000
      vertex -21.484265 -2.924879 -19.990000
      vertex -21.484265 -2.924879 -12.620000
    endloop
  endfacet
  facet normal 0.173648 0.984808 0.000000
    outer loop
      vertex -21.484265 -2.924879 -19.990000
      vertex -23.485000 -2.572096 -19.990000
      vertex -21.484265 -2.924879 -12.620000
    endloop
  endfacet
  facet normal 0.173648 0.984808 0.000000
    outer loop
      vertex -21.484265 -2.924879 -12.620000
      vertex -23.485000 -2.572096 -19.990000
      vertex -23.485000 -2.572096 -12.620000
    endloop
  endfacet
  facet normal 0.766045 0.642787 -0.000000
    outer loop
      vertex -23.485000 -2.572096 -12.620000
      vertex -23.485000 -2.572096 -19.990000
      vertex -23.980000 -1.982178 -19.990000
    endloop
  endfacet
  facet normal 0.766045 0.642787 -0.000000
    outer loop
      vertex -23.980000 -1.982178 -12.620000
      vertex -23.485000 -2.572096 -12.620000
      vertex -23.980000 -1.982178 -19.990000
    endloop
  endfacet
  facet normal -0.951057 0.309017 0.000000
    outer loop
      vertex -31.781476 2.079117 0.000000
      vertex -31.135455 4.067366 0.000000
      vertex -31.781476 2.079117 -9.990000
    endloop
  endfacet
  facet normal -0.951057 0.309017 -0.000000
    outer loop
      vertex -31.781476 2.079117 -9.990000
      vertex -31.135455 4.067366 0.000000
      vertex -31.135455 4.067366 -9.990000
    endloop
  endfacet
  facet normal -0.994522 0.104528 -0.000000
    outer loop
      vertex -32.000000 0.000000 0.000000
      vertex -31.781476 2.079117 0.000000
      vertex -32.000000 0.000000 -9.990000
    endloop
  endfacet
  facet normal -0.994522 0.104528 0.000000
    outer loop
      vertex -32.000000 0.000000 -9.990000
      vertex -31.781476 2.079117 0.000000
      vertex -31.781476 2.079117 -9.990000
    endloop
  endfacet
  facet normal -0.994522 -0.104528 -0.000000
    outer loop
      vertex -32.000000 0.000000 0.000000
      vertex -32.000000 0.000000 -9.990000
      vertex -31.781476 -2.079117 0.000000
    endloop
  endfacet
  facet normal -0.994522 -0.104528 0.000000
    outer loop
      vertex -31.781476 -2.079117 0.000000
      vertex -32.000000 0.000000 -9.990000
      vertex -31.781476 -2.079117 -9.990000
    endloop
  endfacet
  facet normal -0.951057 -0.309017 0.000000
    outer loop
      vertex -31.781476 -2.079117 0.000000
      vertex -31.781476 -2.079117 -9.990000
      vertex -31.135455 -4.067366 0.000000
    endloop
  endfacet
  facet normal -0.951057 -0.309017 -0.000000
    outer loop
      vertex -31.135455 -4.067366 0.000000
      vertex -31.781476 -2.079117 -9.990000
      vertex -31.135455 -4.067366 -9.990000
    endloop
  endfacet
  facet normal -0.866025 -0.500000 -0.000000
    outer loop
      vertex -31.135455 -4.067366 0.000000
      vertex -31.135455 -4.067366 -9.990000
      vertex -30.090170 -5.877853 0.000000
    endloop
  endfacet
  facet normal -0.866025 -0.500000 0.000000
    outer loop
      vertex -30.090170 -5.877853 0.000000
      vertex -31.135455 -4.067366 -9.990000
      vertex -30.090170 -5.877853 -9.990000
    endloop
  endfacet
  facet normal -0.743145 -0.669131 0.000000
    outer loop
      vertex -30.090170 -5.877853 0.000000
      vertex -30.090170 -5.877853 -9.990000
      vertex -28.691306 -7.431448 0.000000
    endloop
  endfacet
  facet normal -0.743145 -0.669131 0.000000
    outer loop
      vertex -28.691306 -7.431448 0.000000
      vertex -30.090170 -5.877853 -9.990000
      vertex -28.691306 -7.431448 -9.990000
    endloop
  endfacet
  facet normal -0.587785 -0.809017 0.000000
    outer loop
      vertex -27.000000 -8.660254 0.000000
      vertex -28.691306 -7.431448 0.000000
      vertex -28.691306 -7.431448 -9.990000
    endloop
  endfacet
  facet normal -0.587785 -0.809017 -0.000000
    outer loop
      vertex -27.000000 -8.660254 -9.990000
      vertex -27.000000 -8.660254 0.000000
      vertex -28.691306 -7.431448 -9.990000
    endloop
  endfacet
  facet normal -0.406737 -0.913545 -0.000000
    outer loop
      vertex -25.090170 -9.510565 0.000000
      vertex -27.000000 -8.660254 0.000000
      vertex -27.000000 -8.660254 -9.990000
    endloop
  endfacet
  facet normal -0.406737 -0.913545 -0.000000
    outer loop
      vertex -25.090170 -9.510565 -9.990000
      vertex -25.090170 -9.510565 0.000000
      vertex -27.000000 -8.660254 -9.990000
    endloop
  endfacet
  facet normal -0.207912 -0.978148 0.000000
    outer loop
      vertex -23.045285 -9.945219 0.000000
      vertex -25.090170 -9.510565 0.000000
      vertex -25.090170 -9.510565 -9.990000
    endloop
  endfacet
  facet normal -0.207912 -0.978148 -0.000000
    outer loop
      vertex -23.045285 -9.945219 -9.990000
      vertex -23.045285 -9.945219 0.000000
      vertex -25.090170 -9.510565 -9.990000
    endloop
  endfacet
  facet normal 0.000000 -1.000000 0.000000
    outer loop
      vertex -20.954715 -9.945219 0.000000
      vertex -23.045285 -9.945219 0.000000
      vertex -23.045285 -9.945219 -9.990000
    endloop
  endfacet
  facet normal 0.000000 -1.000000 0.000000
    outer loop
      vertex -20.954715 -9.945219 -9.990000
      vertex -20.954715 -9.945219 0.000000
      vertex -23.045285 -9.945219 -9.990000
    endloop
  endfacet
  facet normal 0.207912 -0.978148 0.000000
    outer loop
      vertex -18.909830 -9.510565 0.000000
      vertex -20.954715 -9.945219 0.000000
      vertex -20.954715 -9.945219 -9.990000
    endloop
  endfacet
  facet normal 0.207912 -0.978148 0.000000
    outer loop
      vertex -18.909830 -9.510565 -9.990000
      vertex -18.909830 -9.510565 0.000000
      vertex -20.954715 -9.945219 -9.990000
    endloop
  endfacet
  facet normal 0.406737 -0.913545 0.000000
    outer loop
      vertex -17.000000 -8.660254 0.000000
      vertex -18.909830 -9.510565 0.000000
      vertex -18.909830 -9.510565 -9.990000
    endloop
  endfacet
  facet normal 0.406737 -0.913545 0.000000
    outer loop
      vertex -17.000000 -8.660254 -9.990000
      vertex -17.000000 -8.660254 0.000000
      vertex -18.909830 -9.510565 -9.990000
    endloop
  endfacet
  facet normal 0.587785 -0.809017 0.000000
    outer loop
      vertex -15.308694 -7.431448 0.000000
      vertex -17.000000 -8.660254 0.000000
      vertex -17.000000 -8.660254 -9.990000
    endloop
  endfacet
  facet normal 0.587785 -0.809017 0.000000
    outer loop
      vertex -15.308694 -7.431448 -9.990000
      vertex -15.308694 -7.431448 0.000000
      vertex -17.000000 -8.660254 -9.990000
    endloop
  endfacet
  facet normal 0.743145 -0.669131 0.000000
    outer loop
      vertex -13.909830 -5.877853 0.000000
      vertex -15.308694 -7.431448 0.000000
      vertex -15.308694 -7.431448 -9.990000
    endloop
  endfacet
  facet normal 0.743145 -0.669131 0.000000
    outer loop
      vertex -13.909830 -5.877853 -9.990000
      vertex -13.909830 -5.877853 0.000000
      vertex -15.308694 -7.431448 -9.990000
    endloop
  endfacet
  facet normal 0.866025 -0.500000 0.000000
    outer loop
      vertex -12.864545 -4.067366 0.000000
      vertex -13.909830 -5.877853 0.000000
      vertex -13.909830 -5.877853 -9.990000
    endloop
  endfacet
  facet normal 0.866025 -0.500000 0.000000
    outer loop
      vertex -12.864545 -4.067366 -9.990000
      vertex -12.864545 -4.067366 0.000000
      vertex -13.909830 -5.877853 -9.990000
    endloop
  endfacet
  facet normal 0.951057 -0.309017 0.000000
    outer loop
      vertex -12.218524 -2.079117 0.000000
      vertex -12.864545 -4.067366 0.000000
      vertex -12.864545 -4.067366 -9.990000
    endloop
  endfacet
  facet normal 0.951057 -0.309017 0.000000
    outer loop
      vertex -12.218524 -2.079117 -9.990000
      vertex -12.218524 -2.079117 0.000000
      vertex -12.864545 -4.067366 -9.990000
    endloop
  endfacet
  facet normal 0.994522 -0.104528 0.000000
    outer loop
      vertex -12.000000 0.000000 0.000000
      vertex -12.218524 -2.079117 0.000000
      vertex -12.218524 -2.079117 -9.990000
    endloop
  endfacet
  facet normal 0.994522 -0.104528 0.000000
    outer loop
      vertex -12.000000 0.000000 -9.990000
      vertex -12.000000 0.000000 0.000000
      vertex -12.218524 -2.079117 -9.990000
    endloop
  endfacet
  facet normal 0.994522 0.104528 0.000000
    outer loop
      vertex -12.218524 2.079117 -9.990000
      vertex -12.218524 2.079117 0.000000
      vertex -12.000000 0.000000 0.000000
    endloop
  endfacet
  facet normal 0.994522 0.104528 0.000000
    outer loop
      vertex -12.000000 0.000000 -9.990000
      vertex -12.218524 2.079117 -9.990000
      vertex -12.000000 0.000000 0.000000
    endloop
  endfacet
  facet normal 0.951057 0.309017 0.000000
    outer loop
      vertex -12.864545 4.067366 -9.990000
      vertex -12.864545 4.067366 0.000000
      vertex -12.218524 2.079117 0.000000
    endloop
  endfacet
  facet normal 0.951057 0.309017 0.000000
    outer loop
      vertex -12.218524 2.079117 -9.990000
      vertex -12.864545 4.067366 -9.990000
      vertex -12.218524 2.079117 0.000000
    endloop
  endfacet
  facet normal 0.866025 0.500000 0.000000
    outer loop
      vertex -13.909830 5.877853 -9.990000
      vertex -13.909830 5.877853 0.000000
      vertex -12.864545 4.067366 0.000000
    endloop
  endfacet
  facet normal 0.866025 0.500000 0.000000
    outer loop
      vertex -12.864545 4.067366 -9.990000
      vertex -13.909830 5.877853 -9.990000
      vertex -12.864545 4.067366 0.000000
    endloop
  endfacet
  facet normal 0.743145 0.669131 0.000000
    outer loop
      vertex -15.308694 7.431448 -9.990000
      vertex -15.308694 7.431448 0.000000
      vertex -13.909830 5.877853 0.000000
    endloop
  endfacet
  facet normal 0.743145 0.669131 0.000000
    outer loop
      vertex -13.909830 5.877853 -9.990000
      vertex -15.308694 7.431448 -9.990000
      vertex -13.909830 5.877853 0.000000
    endloop
  endfacet
  facet normal 0.587785 0.809017 -0.000000
    outer loop
      vertex -17.000000 8.660254 0.000000
      vertex -15.308694 7.431448 0.000000
      vertex -17.000000 8.660254 -9.990000
    endloop
  endfacet
  facet normal 0.587785 0.809017 0.000000
    outer loop
      vertex -17.000000 8.660254 -9.990000
      vertex -15.308694 7.431448 0.000000
      vertex -15.308694 7.431448 -9.990000
    endloop
  endfacet
  facet normal 0.406737 0.913545 0.000000
    outer loop
      vertex -18.909830 9.510565 0.000000
      vertex -17.000000 8.660254 0.000000
      vertex -18.909830 9.510565 -9.990000
    endloop
  endfacet
  facet normal 0.406737 0.913545 0.000000
    outer loop
      vertex -18.909830 9.510565 -9.990000
      vertex -17.000000 8.660254 0.000000
      vertex -17.000000 8.660254 -9.990000
    endloop
  endfacet
  facet normal 0.207912 0.978148 -0.000000
    outer loop
      vertex -20.954715 9.945219 0.000000
      vertex -18.909830 9.510565 0.000000
      vertex -20.954715 9.945219 -9.990000
    endloop
  endfacet
  facet normal 0.207912 0.978148 0.000000
    outer loop
      vertex -20.954715 9.945219 -9.990000
      vertex -18.909830 9.510565 0.000000
      vertex -18.909830 9.510565 -9.990000
    endloop
  endfacet
  facet normal 0.000000 1.000000 0.000000
    outer loop
      vertex -23.045285 9.945219 0.000000
      vertex -20.954715 9.945219 0.000000
      vertex -23.045285 9.945219 -9.990000
    endloop
  endfacet
  facet normal 0.000000 1.000000 0.000000
    outer loop
      vertex -23.045285 9.945219 -9.990000
      vertex -20.954715 9.945219 0.000000
      vertex -20.954715 9.945219 -9.990000
    endloop
  endfacet
  facet normal -0.207912 0.978148 0.000000
    outer loop
      vertex -25.090170 9.510565 0.000000
      vertex -23.045285 9.945219 0.000000
      vertex -25.090170 9.510565 -9.990000
    endloop
  endfacet
  facet normal -0.207912 0.978148 -0.000000
    outer loop
      vertex -25.090170 9.510565 -9.990000
      vertex -23.045285 9.945219 0.000000
      vertex -23.045285 9.945219 -9.990000
    endloop
  endfacet
  facet normal -0.406737 0.913545 -0.000000
    outer loop
      vertex -27.000000 8.660254 0.000000
      vertex -25.090170 9.510565 0.000000
      vertex -27.000000 8.660254 -9.990000
    endloop
  endfacet
  facet normal -0.406737 0.913545 0.000000
    outer loop
      vertex -27.000000 8.660254 -9.990000
      vertex -25.090170 9.510565 0.000000
      vertex -25.090170 9.510565 -9.990000
    endloop
  endfacet
  facet normal -0.587785 0.809017 0.000000
    outer loop
      vertex -28.691306 7.431448 0.000000
      vertex -27.000000 8.660254 0.000000
      vertex -28.691306 7.431448 -9.990000
    endloop
  endfacet
  facet normal -0.587785 0.809017 -0.000000
    outer loop
      vertex -28.691306 7.431448 -9.990000
      vertex -27.000000 8.660254 0.000000
      vertex -27.000000 8.660254 -9.990000
    endloop
  endfacet
  facet normal -0.743145 0.669131 0.000000
    outer loop
      vertex -30.090170 5.877853 0.000000
      vertex -28.691306 7.431448 0.000000
      vertex -30.090170 5.877853 -9.990000
    endloop
  endfacet
  facet normal -0.743145 0.669131 0.000000
    outer loop
      vertex -30.090170 5.877853 -9.990000
      vertex -28.691306 7.431448 0.000000
      vertex -28.691306 7.431448 -9.990000
    endloop
  endfacet
  facet normal -0.866025 0.500000 -0.000000
    outer loop
      vertex -31.135455 4.067366 0.000000
      vertex -30.090170 5.877853 0.000000
      vertex -31.135455 4.067366 -9.990000
    endloop
  endfacet
  facet normal -0.866025 0.500000 0.000000
    outer loop
      vertex -31.135455 4.067366 -9.990000
      vertex -30.090170 5.877853 0.000000
      vertex -30.090170 5.877853 -9.990000
    endloop
  endfacet
  facet normal -0.000000 0.000000 -1.000000
    outer loop
      vertex -23.485000 2.572096 -12.620000
      vertex -21.484265 2.924879 -12.620000
      vertex -23.980000 1.982178 -12.620000
    endloop
  endfacet
  facet normal 0.000000 0.000000 -1.000000
    outer loop
      vertex -23.980000 1.982178 -12.620000
      vertex -21.484265 2.924879 -12.620000
      vertex -20.020000 2.079486 -12.620000
    endloop
  endfacet
  facet normal -0.000000 0.000000 -1.000000
    outer loop
      vertex -23.980000 1.982178 -12.620000
      vertex -20.020000 2.079486 -12.620000
      vertex -20.020000 -2.079486 -12.620000
    endloop
  endfacet
  facet normal 0.000000 0.000000 -1.000000
    outer loop
      vertex -23.980000 1.982178 -12.620000
      vertex -20.020000 -2.079486 -12.620000
      vertex -21.484265 -2.924879 -12.620000
    endloop
  endfacet
  facet normal 0.000000 0.000000 -1.000000
    outer loop
      vertex -23.980000 1.982178 -12.620000
      vertex -21.484265 -2.924879 -12.620000
      vertex -23.485000 -2.572096 -12.620000
    endloop
  endfacet
  facet normal 0.000000 0.000000 -1.000000
    outer loop
      vertex -23.980000 1.982178 -12.620000
      vertex -23.485000 -2.572096 -12.620000
      vertex -23.980000 -1.982178 -12.620000
    endloop
  endfacet
  facet normal 0.000000 0.000000 1.000000
    outer loop
      vertex -31.781476 -2.079117 0.000000
      vertex -31.135455 -4.067366 0.000000
      vertex -30.090170 -5.877853 0.000000
    endloop
  endfacet
  facet normal 0.000000 0.000000 1.000000
    outer loop
      vertex -27.000000 -8.660254 0.000000
      vertex -31.781476 -2.079117 0.000000
      vertex -28.691306 -7.431448 0.000000
    endloop
  endfacet
  facet normal 0.000000 0.000000 1.000000
    outer loop
      vertex -28.691306 -7.431448 0.000000
      vertex -31.781476 -2.079117 0.000000
      vertex -30.090170 -5.877853 0.000000
    endloop
  endfacet
  facet normal 0.000000 0.000000 1.000000
    outer loop
      vertex -25.090170 -9.510565 0.000000
      vertex -31.781476 -2.079117 0.000000
      vertex -27.000000 -8.660254 0.000000
    endloop
  endfacet
  facet normal 0.000000 0.000000 1.000000
    outer loop
      vertex -23.045285 -9.945219 0.000000
      vertex -31.781476 -2.079117 0.000000
      vertex -25.090170 -9.510565 0.000000
    endloop
  endfacet
  facet normal -0.000000 0.000000 1.000000
    outer loop
      vertex -20.954715 -9.945219 0.000000
      vertex -31.781476 -2.079117 0.000000
      vertex -23.045285 -9.945219 0.000000
    endloop
  endfacet
  facet normal -0.000000 0.000000 1.000000
    outer loop
      vertex -18.909830 -9.510565 0.000000
      vertex -31.781476 -2.079117 0.000000
      vertex -20.954715 -9.945219 0.000000
    endloop
  endfacet
  facet normal -0.000000 0.000000 1.000000
    outer loop
      vertex -17.000000 -8.660254 0.000000
      vertex -31.781476 -2.079117 0.000000
      vertex -18.909830 -9.510565 0.000000
    endloop
  endfacet
  facet normal -0.000000 0.000000 1.000000
    outer loop
      vertex -15.308694 -7.431448 0.000000
      vertex -31.781476 -2.079117 0.000000
      vertex -17.000000 -8.660254 0.000000
    endloop
  endfacet
  facet normal -0.000000 0.000000 1.000000
    outer loop
      vertex -13.909830 -5.877853 0.000000
      vertex -31.781476 -2.079117 0.000000
      vertex -15.308694 -7.431448 0.000000
    endloop
  endfacet
  facet normal -0.000000 0.000000 1.000000
    outer loop
      vertex -12.864545 -4.067366 0.000000
      vertex -31.781476 -2.079117 0.000000
      vertex -13.909830 -5.877853 0.000000
    endloop
  endfacet
  facet normal -0.000000 -0.000000 1.000000
    outer loop
      vertex -24.250000 -2.250000 0.000000
      vertex -31.781476 -2.079117 0.000000
      vertex -12.864545 -4.067366 0.000000
    endloop
  endfacet
  facet normal 0.000000 -0.000000 1.000000
    outer loop
      vertex -19.750000 2.250000 0.000000
      vertex -19.750000 -2.250000 0.000000
      vertex -12.218524 -2.079117 0.000000
    endloop
  endfacet
  facet normal 0.000000 0.000000 1.000000
    outer loop
      vertex -19.750000 2.250000 0.000000
      vertex -12.218524 -2.079117 0.000000
      vertex -12.000000 0.000000 0.000000
    endloop
  endfacet
  facet normal 0.000000 -0.000000 1.000000
    outer loop
      vertex -17.000000 8.660254 0.000000
      vertex -31.781476 -2.079117 0.000000
      vertex -15.308694 7.431448 0.000000
    endloop
  endfacet
  facet normal 0.000000 -0.000000 1.000000
    outer loop
      vertex -18.909830 9.510565 0.000000
      vertex -31.781476 -2.079117 0.000000
      vertex -17.000000 8.660254 0.000000
    endloop
  endfacet
  facet normal 0.000000 -0.000000 1.000000
    outer loop
      vertex -20.954715 9.945219 0.000000
      vertex -31.781476 -2.079117 0.000000
      vertex -18.909830 9.510565 0.000000
    endloop
  endfacet
  facet normal 0.000000 -0.000000 1.000000
    outer loop
      vertex -23.045285 9.945219 0.000000
      vertex -31.781476 -2.079117 0.000000
      vertex -20.954715 9.945219 0.000000
    endloop
  endfacet
  facet normal 0.000000 -0.000000 1.000000
    outer loop
      vertex -25.090170 9.510565 0.000000
      vertex -31.781476 -2.079117 0.000000
      vertex -23.045285 9.945219 0.000000
    endloop
  endfacet
  facet normal 0.000000 -0.000000 1.000000
    outer loop
      vertex -27.000000 8.660254 0.000000
      vertex -31.781476 -2.079117 0.000000
      vertex -25.090170 9.510565 0.000000
    endloop
  endfacet
  facet normal 0.000000 -0.000000 1.000000
    outer loop
      vertex -28.691306 7.431448 0.000000
      vertex -31.781476 -2.079117 0.000000
      vertex -27.000000 8.660254 0.000000
    endloop
  endfacet
  facet normal 0.000000 -0.000000 1.000000
    outer loop
      vertex -30.090170 5.877853 0.000000
      vertex -31.781476 -2.079117 0.000000
      vertex -28.691306 7.431448 0.000000
    endloop
  endfacet
  facet normal 0.000000 -0.000000 1.000000
    outer loop
      vertex -31.135455 4.067366 0.000000
      vertex -31.781476 -2.079117 0.000000
      vertex -30.090170 5.877853 0.000000
    endloop
  endfacet
  facet normal 0.000000 -0.000000 1.000000
    outer loop
      vertex -31.781476 2.079117 0.000000
      vertex -31.781476 -2.079117 0.000000
      vertex -31.135455 4.067366 0.000000
    endloop
  endfacet
  facet normal 0.000000 0.000000 1.000000
    outer loop
      vertex -32.000000 0.000000 0.000000
      vertex -31.781476 -2.079117 0.000000
      vertex -31.781476 2.079117 0.000000
    endloop
  endfacet
  facet normal 0.000000 -0.000000 1.000000
    outer loop
      vertex -15.308694 7.431448 0.000000
      vertex -24.250000 2.250000 0.000000
      vertex -13.909830 5.877853 0.000000
    endloop
  endfacet
  facet normal 0.000000 0.000000 1.000000
    outer loop
      vertex -15.308694 7.431448 0.000000
      vertex -31.781476 -2.079117 0.000000
      vertex -24.250000 2.250000 0.000000
    endloop
  endfacet
  facet normal 0.000000 -0.000000 1.000000
    outer loop
      vertex -13.909830 5.877853 0.000000
      vertex -19.750000 2.250000 0.000000
      vertex -12.864545 4.067366 0.000000
    endloop
  endfacet
  facet normal 0.000000 0.000000 1.000000
    outer loop
      vertex -19.750000 2.250000 0.000000
      vertex -12.000000 0.000000 0.000000
      vertex -12.218524 2.079117 0.000000
    endloop
  endfacet
  facet normal 0.000000 0.000000 1.000000
    outer loop
      vertex -12.218524 -2.079117 0.000000
      vertex -19.750000 -2.250000 0.000000
      vertex -12.864545 -4.067366 0.000000
    endloop
  endfacet
  facet normal 0.000000 -0.000000 1.000000
    outer loop
      vertex -19.750000 -2.250000 0.000000
      vertex -24.250000 -2.250000 0.000000
      vertex -12.864545 -4.067366 0.000000
    endloop
  endfacet
  facet normal 0.000000 0.000000 1.000000
    outer loop
      vertex -24.250000 2.250000 0.000000
      vertex -19.750000 2.250000 0.000000
      vertex -13.909830 5.877853 0.000000
    endloop
  endfacet
  facet normal 0.000000 0.000000 1.000000
    outer loop
      vertex -19.750000 2.250000 0.000000
      vertex -12.218524 2.079117 0.000000
      vertex -12.864545 4.067366 0.000000
    endloop
  endfacet
  facet normal 0.000000 0.000000 1.000000
    outer loop
      vertex -24.250000 -2.250000 0.000000
      vertex -24.250000 2.250000 0.000000
      vertex -31.781476 -2.079117 0.000000
    endloop
  endfacet
  facet normal -1.000000 -0.000000 -0.000000
    outer loop
      vertex -24.250000 -2.250000 0.000000
      vertex -24.250000 -2.250000 4.490000
      vertex -24.250000 2.250000 0.000000
    endloop
  endfacet
  facet normal -1.000000 0.000000 0.000000
    outer loop
      vertex -24.250000 2.250000 0.000000
      vertex -24.250000 -2.250000 4.490000
      vertex -24.250000 2.250000 4.490000
    endloop
  endfacet
  facet normal 0.000000 1.000000 0.000000
    outer loop
      vertex -24.250000 2.250000 0.000000
      vertex -24.250000 2.250000 4.490000
      vertex -19.750000 2.250000 0.000000
    endloop
  endfacet
  facet normal 0.000000 1.000000 0.000000
    outer loop
      vertex -19.750000 2.250000 0.000000
      vertex -24.250000 2.250000 4.490000
      vertex -19.750000 2.250000 4.490000
    endloop
  endfacet
  facet normal 0.000000 -1.000000 0.000000
    outer loop
      vertex -24.250000 -2.250000 4.490000
      vertex -24.250000 -2.250000 0.000000
      vertex -19.750000 -2.250000 0.000000
    endloop
  endfacet
  facet normal 0.000000 -1.000000 0.000000
    outer loop
      vertex -19.750000 -2.250000 4.490000
      vertex -24.250000 -2.250000 4.490000
      vertex -19.750000 -2.250000 0.000000
    endloop
  endfacet
  facet normal 1.000000 0.000000 -0.000000
    outer loop
      vertex -19.750000 -2.250000 4.490000
      vertex -19.750000 -2.250000 0.000000
      vertex -19.750000 2.250000 0.000000
    endloop
  endfacet
  facet normal 1.000000 0.000000 0.000000
    outer loop
      vertex -19.750000 2.250000 4.490000
      vertex -19.750000 -2.250000 4.490000
      vertex -19.750000 2.250000 0.000000
    endloop
  endfacet
  facet normal 0.000000 -0.000000 1.000000
    outer loop
      vertex -24.250000 2.250000 4.490000
      vertex -24.250000 -2.250000 4.490000
      vertex -19.750000 -2.250000 4.490000
    endloop
  endfacet
  facet normal 0.000000 0.000000 1.000000
    outer loop
      vertex -19.750000 2.250000 4.490000
      vertex -24.250000 2.250000 4.490000
      vertex -19.750000 -2.250000 4.490000
    endloop
  endfacet
endsolid OpenSCAD_Model
